<?xml version="1.0" encoding="UTF-8"?>
<svg width="20px" height="20px" viewBox="0 0 20 20" version="1.1" xmlns="http://www.w3.org/2000/svg" xmlns:xlink="http://www.w3.org/1999/xlink">
    <!-- Generator: Sketch 50.2 (55047) - http://www.bohemiancoding.com/sketch -->
    <title>Shape</title>
    <desc>Created with Sketch.</desc>
    <defs></defs>
    <g id="Symbols" stroke="none" stroke-width="1" fill="none" fill-rule="evenodd">
        <g id="White-Nav_Desktop" transform="translate(-1166.000000, -2.000000)" fill="#FFFFFF" fill-rule="nonzero">
            <path d="M1176,2 C1170.48,2 1166,6.48 1166,12 C1166,17.52 1170.48,22 1176,22 C1181.52,22 1186,17.52 1186,12 C1186,6.48 1181.52,2 1176,2 Z M1171.07,18.28 C1171.5,17.38 1174.12,16.5 1176,16.5 C1177.88,16.5 1180.51,17.38 1180.93,18.28 C1179.57,19.36 1177.86,20 1176,20 C1174.14,20 1172.43,19.36 1171.07,18.28 Z M1182.36,16.83 C1180.93,15.09 1177.46,14.5 1176,14.5 C1174.54,14.5 1171.07,15.09 1169.64,16.83 C1168.62,15.49 1168,13.82 1168,12 C1168,7.59 1171.59,4 1176,4 C1180.41,4 1184,7.59 1184,12 C1184,13.82 1183.38,15.49 1182.36,16.83 Z M1176,6 C1174.06,6 1172.5,7.56 1172.5,9.5 C1172.5,11.44 1174.06,13 1176,13 C1177.94,13 1179.5,11.44 1179.5,9.5 C1179.5,7.56 1177.94,6 1176,6 Z M1176,11 C1175.17,11 1174.5,10.33 1174.5,9.5 C1174.5,8.67 1175.17,8 1176,8 C1176.83,8 1177.5,8.67 1177.5,9.5 C1177.5,10.33 1176.83,11 1176,11 Z" id="Shape"></path>
        </g>
    </g>
</svg>