<?xml version="1.0" encoding="UTF-8" standalone="no"?>
<!DOCTYPE svg PUBLIC "-//W3C//DTD SVG 1.1//EN" "http://www.w3.org/Graphics/SVG/1.1/DTD/svg11.dtd">
<svg width="100%" height="100%" viewBox="0 0 20 20" version="1.1" xmlns="http://www.w3.org/2000/svg" xmlns:xlink="http://www.w3.org/1999/xlink" xml:space="preserve" xmlns:serif="http://www.serif.com/" style="fill-rule:evenodd;clip-rule:evenodd;stroke-linejoin:round;stroke-miterlimit:1.41421;">
    <g id="Shape" transform="matrix(1,0,0,1,-1166,-2)">
        <path d="M1176,2C1170.48,2 1166,6.48 1166,12C1166,17.52 1170.48,22 1176,22C1181.52,22 1186,17.52 1186,12C1186,6.48 1181.52,2 1176,2ZM1171.07,18.28C1171.5,17.38 1174.12,16.5 1176,16.5C1177.88,16.5 1180.51,17.38 1180.93,18.28C1179.57,19.36 1177.86,20 1176,20C1174.14,20 1172.43,19.36 1171.07,18.28ZM1182.36,16.83C1180.93,15.09 1177.46,14.5 1176,14.5C1174.54,14.5 1171.07,15.09 1169.64,16.83C1168.62,15.49 1168,13.82 1168,12C1168,7.59 1171.59,4 1176,4C1180.41,4 1184,7.59 1184,12C1184,13.82 1183.38,15.49 1182.36,16.83ZM1176,6C1174.06,6 1172.5,7.56 1172.5,9.5C1172.5,11.44 1174.06,13 1176,13C1177.94,13 1179.5,11.44 1179.5,9.5C1179.5,7.56 1177.94,6 1176,6ZM1176,11C1175.17,11 1174.5,10.33 1174.5,9.5C1174.5,8.67 1175.17,8 1176,8C1176.83,8 1177.5,8.67 1177.5,9.5C1177.5,10.33 1176.83,11 1176,11Z" style="fill:rgb(45,41,38);fill-rule:nonzero;"/>
    </g>
</svg>
