<svg width="28" height="28" viewBox="0 0 28 28" fill="none" xmlns="http://www.w3.org/2000/svg">
<path fill-rule="evenodd" clip-rule="evenodd" d="M16.0676 4.47371C16.0676 4.47371 24.3686 12.7287 24.4388 12.7894C24.7819 13.0845 25 13.5156 25 14C25 14.5046 24.7623 14.9511 24.3939 15.2462C24.3147 15.3093 16.0676 23.5263 16.0676 23.5263C15.4296 24.1579 14.3947 24.1579 13.7575 23.5263C13.1196 22.8947 13.1196 21.87 13.7575 21.2392L19.425 15.6174L4.64186 15.6174C3.73516 15.6174 3 14.8928 3 14C3 13.1064 3.73516 12.3826 4.64186 12.3826L19.425 12.3826L13.7575 6.76076C13.1196 6.12996 13.1196 5.10531 13.7575 4.47371C14.3947 3.8421 15.4296 3.8421 16.0676 4.47371Z" fill="#2D2926"/>
</svg>
