<?xml version="1.0" encoding="utf-8"?>
<svg version="1.1" id="layer" x="0px" y="0px" viewBox="30.138 227.31 592.559 196.692" style="enable-background:new 0 0 652 652;" xmlns="http://www.w3.org/2000/svg">
  <style type="text/css">
	.st0{fill:#959291;}
	.st1{fill:#FFFFFF;}
</style>
  <rect x="27" y="223.9" class="st0" width="600" height="204.3"/>
  <path class="st1" d="M178.6,366.4h19.7l-37.7-80.9h-15.2l-37.7,80.9h19.7l5.5-12.7h40C173.1,353.7,178.6,366.4,178.6,366.4z M504.4,315.8l20.2-30.2h21.6l-32.8,49.1v31.8h-17.9v-31.8l-32.8-49.1h21.6C484.1,285.6,504.4,315.8,504.4,315.8z M438.8,366.4h19.7 l-37.7-80.9h-15.2L368,366.4h19.7l5.5-12.7h40C433.3,353.7,438.8,366.4,438.8,366.4z M316.5,344.4l25.5-58.8h19.7l-37.7,80.9h-15.2 l-25.7-55.2l-25.7,55.2h-15.2l-37.7-80.9h19.7l25.5,58.8l25.5-58.8h15.4L316.5,344.4z"/>
  <path class="st0" d="M140.2,337.2l12.8-29.6l12.9,29.6C165.9,337.2,140.2,337.2,140.2,337.2z M400.4,337.2l12.8-29.6l12.8,29.6 H400.4z"/>
</svg>