<?xml version="1.0" encoding="UTF-8" standalone="no"?>
<!DOCTYPE svg PUBLIC "-//W3C//DTD SVG 1.1//EN" "http://www.w3.org/Graphics/SVG/1.1/DTD/svg11.dtd">
<svg width="100%" height="100%" viewBox="0 0 16 21" version="1.1" xmlns="http://www.w3.org/2000/svg" xmlns:xlink="http://www.w3.org/1999/xlink" xml:space="preserve" xmlns:serif="http://www.serif.com/" style="fill-rule:evenodd;clip-rule:evenodd;stroke-linejoin:round;stroke-miterlimit:1.41421;">
    <g id="Shape" transform="matrix(1,0,0,1,-1204,0)">
        <path d="M1218,7L1217,7L1217,5C1217,2.24 1214.76,0 1212,0C1209.24,0 1207,2.24 1207,5L1207,7L1206,7C1204.9,7 1204,7.9 1204,9L1204,19C1204,20.1 1204.9,21 1206,21L1218,21C1219.1,21 1220,20.1 1220,19L1220,9C1220,7.9 1219.1,7 1218,7ZM1208.9,5C1208.9,3.29 1210.29,1.9 1212,1.9C1213.71,1.9 1215.1,3.29 1215.1,5L1215.1,7L1208.9,7L1208.9,5ZM1218,19L1206,19L1206,9L1218,9L1218,19Z" style="fill:rgb(45,41,38);fill-rule:nonzero;"/>
    </g>
</svg>
