<svg width="38" height="39" viewBox="0 0 38 39" fill="none" xmlns="http://www.w3.org/2000/svg">
<path d="M19.5 38C29.7173 38 38 34.5698 38 30.3384C38 28.5947 36.5934 26.987 34.2245 25.6994L30.902 6.28584C29.8821 2.49598 24.4168 0.981875 19.5 1.00014C14.6222 1.01826 9.11625 2.50127 8.20852 6.28584L4.77551 25.6994C2.40659 26.987 1 28.5947 1 30.3384C1 34.5698 9.28273 38 19.5 38Z" fill="#F5DADF"/>
<path d="M4.4209 29.6738L8.41782 6.41898C9.32621 2.9671 14.6504 1.51367 19.3185 1.51367C23.9867 1.51367 29.3108 2.9671 30.2192 6.41898L34.2161 29.6738C34.2161 32.8641 27.5449 35.3058 19.3185 35.3058C11.0921 35.3058 4.4209 32.8641 4.4209 29.6738Z" stroke="#2D2926" stroke-width="1.71296"/>
<ellipse cx="19.3182" cy="2.9671" rx="3.99692" ry="1.45343" stroke="#2D2926" stroke-width="1.02778"/>
<ellipse cx="19.3182" cy="2.9671" rx="3.99692" ry="1.45343" stroke="#2D2926" stroke-width="1.71296"/>
<path d="M30.2188 6.60059C30.2188 8.80802 25.3384 10.5975 19.3181 10.5975C13.2978 10.5975 8.45117 8.70808 8.45117 6.60059" stroke="#2D2926" stroke-width="1.71296" stroke-linecap="round"/>
<path d="M33.489 25.5269C35.7689 26.7787 37.1226 28.3417 37.1226 30.037C37.1226 34.1509 29.1513 37.4859 19.3181 37.4859C9.485 37.4859 1.51367 34.1509 1.51367 30.037C1.51367 28.3417 2.86738 26.7787 5.14724 25.5269" stroke="#2D2926" stroke-width="1.71296"/>
</svg>
