<svg width="32" height="32" viewBox="0 0 32 32" fill="none" xmlns="http://www.w3.org/2000/svg">
<path fill-rule="evenodd" clip-rule="evenodd" d="M0 16C0 7.16344 7.16344 0 16 0C24.8366 0 32 7.16344 32 16C32 24.8366 24.8366 32 16 32C7.16344 32 0 24.8366 0 16Z" fill="#52B57A"/>
<path d="M14.0714 19.4124L22.6732 10.406C23.1903 9.86466 24.0286 9.86466 24.5456 10.406C25.0627 10.9474 25.0627 11.8251 24.5456 12.3665L14.0714 23.3333L7.98789 16.9637C7.47083 16.4223 7.47083 15.5446 7.98789 15.0032C8.50494 14.4618 9.34325 14.4618 9.8603 15.0032L14.0714 19.4124Z" fill="white"/>
</svg>
