<svg width="32" height="32" viewBox="0 0 32 32" fill="none" xmlns="http://www.w3.org/2000/svg">
<path fill-rule="evenodd" clip-rule="evenodd" d="M8.22182 8.22183C7.63604 8.80761 7.63604 9.75736 8.22182 10.3431L13.8787 16L8.22182 21.6569C7.63604 22.2426 7.63604 23.1924 8.22182 23.7782C8.80761 24.364 9.75736 24.364 10.3431 23.7782L16 18.1213L21.6569 23.7782C22.2426 24.364 23.1924 24.364 23.7782 23.7782C24.364 23.1924 24.364 22.2426 23.7782 21.6569L18.1213 16L23.7782 10.3431C24.364 9.75736 24.364 8.80761 23.7782 8.22183C23.1924 7.63604 22.2426 7.63604 21.6569 8.22183L16 13.8787L10.3431 8.22183C9.75736 7.63604 8.80761 7.63604 8.22182 8.22183Z" fill="#2D2926"/>
</svg>
