<svg width="16" height="12" viewBox="0 0 16 12" fill="none" xmlns="http://www.w3.org/2000/svg">
<rect width="16" height="12" fill="#F5F8FB"/>
<circle cx="8" cy="6" r="3" fill="#DC251C"/>
<mask id="mask0_101:364" style="mask-type:alpha" maskUnits="userSpaceOnUse" x="5" y="5" width="6" height="5">
<path d="M11 9.5V6.5C9.99889 4.74806 7.99668 6.18978 7.99668 6.18978C7.99668 6.18978 5.99889 7.49779 5 5.5V9.5H11Z" fill="#C4C4C4"/>
</mask>
<g mask="url(#mask0_101:364)">
<circle cx="8" cy="6" r="3" fill="#41479B"/>
</g>
<path d="M2.16376 3.6897L3.66376 1.09162" stroke="black" stroke-width="0.5"/>
<path d="M2.83191 4.07544L4.33191 1.47736" stroke="black" stroke-width="0.5"/>
<path d="M3.5 4.46118L5 1.86311" stroke="black" stroke-width="0.5"/>
<path d="M13.8362 3.6897L12.3362 1.09162" stroke="black" stroke-width="0.5" stroke-dasharray="8 1"/>
<path d="M13.1681 4.07544L11.6681 1.47736" stroke="black" stroke-width="0.5"/>
<path d="M12.5 4.46118L11 1.86311" stroke="black" stroke-width="0.5" stroke-dasharray="8 1"/>
<path d="M2.16376 8.3103L3.66376 10.9084" stroke="black" stroke-width="0.5"/>
<path d="M2.83191 7.92456L4.33191 10.5226" stroke="black" stroke-width="0.5" stroke-dasharray="8 1"/>
<path d="M3.5 7.53882L5 10.1369" stroke="black" stroke-width="0.5"/>
<path d="M13.8362 8.3103L12.3362 10.9084" stroke="black" stroke-width="0.5" stroke-dasharray="8 1"/>
<path d="M13.1681 7.92456L11.6681 10.5226" stroke="black" stroke-width="0.5" stroke-dasharray="8 1"/>
<path d="M12.5 7.53882L11 10.1369" stroke="black" stroke-width="0.5" stroke-dasharray="8 1"/>
</svg>
