<svg width="16" height="12" viewBox="0 0 16 12" fill="none" xmlns="http://www.w3.org/2000/svg">
<rect width="16" height="12" fill="#F5F8FB"/>
<rect width="5" height="12" fill="#2B9F5A"/>
<rect x="11" width="5" height="12" fill="#DC251C"/>
<path d="M6 6.30005C6 6.96672 6.60156 8.30005 8 8.30005C9.5 8.30005 10 6.96672 10 6.30005" stroke="#717732" stroke-width="0.4" stroke-linecap="round" stroke-linejoin="round"/>
<path d="M6.79999 6.70001C7.06665 6.96668 7.85155 7.71408 9.19999 7.10001" stroke="#0C8489" stroke-width="0.4"/>
<circle cx="7.99998" cy="7.50004" r="0.4" fill="#FF8718"/>
<path d="M7.04051 4.20001L6.5 4.70001C6.68017 4.70001 7.04051 4.80001 7.04051 5.20001C6.6081 6.00001 7.58102 6.53335 8.12153 6.70001C8.66204 6.86668 9.20255 6.70001 9.20255 6.70001C10.0674 5.10001 8.84221 4.03335 8.12153 3.70001L7.58102 4.20001H7.04051Z" fill="#8F4620"/>
</svg>
