<svg width="16" height="12" viewBox="0 0 16 12" fill="none" xmlns="http://www.w3.org/2000/svg">
<rect width="16" height="12" fill="#E31D1C"/>
<path d="M3.00001 1.68164L3.5878 2.87262L4.90213 3.06361L3.95107 3.99066L4.17558 5.29967L3.00001 4.68164L1.82444 5.29967L2.04896 3.99066L1.0979 3.06361L2.41223 2.87262L3.00001 1.68164Z" fill="#FFD018"/>
<path d="M5.62667 0.486694L6.37127 1.02767L6.08686 1.90299H5.16649L4.88208 1.02767L5.62667 0.486694Z" fill="#FFD018"/>
<path d="M8.00704 2.02083L8.15101 2.92987L7.33096 3.34771L6.68016 2.69691L7.098 1.87685L8.00704 2.02083Z" fill="#FFD018"/>
<path d="M5.62668 6.75L4.88209 6.20902L5.1665 5.3337L6.08687 5.3337L6.37128 6.20902L5.62668 6.75Z" fill="#FFD018"/>
<path d="M8.00706 5.21584L7.09803 5.35982L6.68019 4.53976L7.33099 3.88896L8.15104 4.3068L8.00706 5.21584Z" fill="#FFD018"/>
</svg>
