<?xml version="1.0" encoding="utf-8"?>
<!-- Generator: Adobe Illustrator 22.1.0, SVG Export Plug-In . SVG Version: 6.00 Build 0)  -->
<svg version="1.1" id="Layer_1" xmlns="http://www.w3.org/2000/svg" xmlns:xlink="http://www.w3.org/1999/xlink" x="0px" y="0px"
	 viewBox="0 0 566.9 566.9" style="enable-background:new 0 0 566.9 566.9;" xml:space="preserve">
<g>
	<g>
		<path d="M288.9,450.8c-3.6,0-7.2,0-10.8,0c-0.4-0.1-0.8-0.2-1.1-0.2c-9.4-0.3-18.6-1.4-27.8-3.3c-14.7-2.9-28.6-8-41.8-14.9
			c-14.9-7.7-28.4-17.3-40.4-29c-13.9-13.6-25.2-29.1-33.8-46.5c-9.6-19.7-15.2-40.5-16.6-62.5c-0.1-1.9-0.3-3.8-0.4-5.7
			c0-3.6,0-7.2,0-10.8c0.1-0.3,0.2-0.5,0.2-0.8c0.5-15.7,3.2-31,8.1-45.9c12.4-37.1,34.9-66.5,67.6-88c27.3-18,57.5-26.8,90.2-27.2
			c9-0.1,18,0.6,27,2c20.2,3.1,39.2,9.8,56.9,19.8c6.8,3.9,13.2,8.4,19.6,13c6.6,4.7,12.9,9.9,18.7,15.6
			c13,12.9,23.5,27.6,31.4,44.1c7.5,15.8,12.2,32.4,14.1,49.8c1,8.8,1,17.6,0.8,26.5c-0.3,12.5-1.8,24.9-4.9,37
			c-7.3,29.1-21.4,54.5-42.3,76.1c-13.5,14-29.1,25.3-46.6,33.9c-19.7,9.6-40.5,15.2-62.4,16.6C292.7,450.5,290.8,450.7,288.9,450.8
			z M142.1,347.7c6.7,14.7,15.5,28,26.3,39.9c10.8,12,23.2,22,37.3,30.2c0.4-1,0.7-1.9,0.9-2.7c3.4-10.7,6.8-21.5,10.3-32.2
			c4.5-13.7,13.5-23.2,27.1-28.1c6.2-2.3,12.7-3.5,19.3-4.2c8.3-0.9,16.6-1,24.9-0.8c7,0.2,14,1,21,0.4c4.6-0.4,9-1,13.3-2.9
			c4.8-2.1,7.8-5.7,8.5-10.9c0.4-2.8,0.5-5.7,0.5-8.6c-0.1-4.6-0.6-9.3-0.7-13.9c-0.1-7.5,3.6-12.6,10.9-14.6c3.9-1.1,8-1.7,12-2.4
			c7-1.3,11.4-5.4,12.8-12.4c0.7-3.2,1.1-6.4,1.3-9.6c0.5-8.9-0.9-17.7-2.7-26.4c-2.1-10.2-4.5-20.3-6.4-30.5
			c-2.2-11.5-2.3-23,0.3-34.4c1.9-8.6,4.9-16.7,10.2-23.8c1-1.3,2.1-2.6,3.1-3.9c-43.3-30.9-99.7-34.8-143-17.9
			c0.8,0.9,1.7,1.7,2.5,2.6c5.4,6.2,8.2,13.6,9.3,21.7c1.1,8.2-1,15.4-7.1,21.2c-3,2.8-6.4,5.2-9.6,7.7c-2.3,1.8-4.7,3.6-6.9,5.6
			c-4.5,4-4.3,12.6,1.6,16.1c2.1,1.3,4.2,2.7,6.2,4.2c4.7,3.4,7.9,8,9.7,13.5c1.7,5,2.2,10.2,2.2,15.5c0,9.7-4.6,15.8-14,18.3
			c-4.5,1.2-9.1,1.4-13.7,1.4c-6.5,0-13-0.2-19.4-0.2c-4.8,0-9.6,0.4-14.3,1.6c-7,1.8-12.1,5.8-14.1,12.9c-0.9,3.1-1.3,6.3-1.5,9.5
			c-0.5,7.3-0.5,14.7-1.1,22c-0.5,6.7-1.8,13.4-4,19.8C152.3,338.2,148.9,344.2,142.1,347.7z M382,163.2c-2.5,2.3-4.4,4.8-5.9,7.6
			c-6.2,11.7-8.1,24.2-6.9,37.3c0.8,8.5,2.7,16.9,4.6,25.2c2.4,10.7,5,21.4,5.7,32.4c0.5,7.4,0.3,14.8-1.6,22
			c-1.5,6.1-4.4,11.5-9.5,15.5c-4.4,3.5-9.6,5.1-15.1,6c-2.8,0.5-5.5,1-8.2,1.6c-2.3,0.5-2.5,1-2.5,3.2c0,0.9,0,1.8,0.1,2.8
			c0.4,6.4,1.1,12.8,0.4,19.2c-1.2,10.7-6.5,18.4-16.5,22.7c-6.9,2.9-14.1,3.7-21.5,3.8c-6.5,0-13-0.5-19.5-0.6
			c-9.9-0.2-19.8,0.1-29.6,2.1c-5.4,1.2-10.6,2.9-15.3,5.9c-6.4,4.1-10.2,10.2-12.5,17.3c-2.8,8.8-5.6,17.7-8.4,26.5
			c-1.1,3.3-2.2,6.6-3.3,9.9c0.2,0.1,0.3,0.2,0.5,0.3c1.4,0.7,2.8,1.3,4.2,2c19.1,8.3,39,12.8,59.9,12.8c11.5,0,22.8-1.2,34-3.6
			c12.3-2.6,24.2-6.3,35.6-11.5c0.7-0.3,1.2-0.6,1.2-1.5c-0.1-8-0.1-16.1-0.2-24.1c-0.1-7.6-0.3-15.3-0.2-22.9
			c0.2-8.9,3.1-12,10.1-14.6c3.7-1.4,7.2-3.1,10.3-5.5c2.7-2,3.7-4.7,3.2-8c-0.5-2.7-1-5.3-1.4-8c-0.8-5.8,2.2-10.2,7.8-11.8
			c3.5-1,7-0.9,10.5-0.5c4.9,0.6,9.4-0.3,13.7-2.7c3.7-2,6.9-4.6,9.9-7.5c9.8-9.7,16.8-21.3,22.9-33.5c0.2-0.4,0.3-0.9,0.3-1.4
			c-0.1-7.1-0.7-14.1-1.7-21.1c-2.4-15.8-7.1-30.8-14.1-45.1c-8.1-16.4-18.7-30.9-31.9-43.6C388.1,168.6,385,166,382,163.2z
			 M137.3,336.4c0.2,0.1,0.4,0.1,0.6,0.2c1-1.3,2.2-2.4,3-3.8c2.8-4.6,4-9.8,4.9-15c1.5-8.5,1.8-17.1,1.9-25.7
			c0.1-3.7,0.3-7.5,1-11.2c2.4-12.7,9.8-21.2,22.3-24.9c6-1.8,12.2-2.4,18.4-2.4c7.4,0,14.8,0.2,22.2,0.2c3.2,0,6.5-0.3,9.6-1.4
			c2.4-0.8,3.7-2.5,3.6-5c-0.1-2.9-0.2-5.8-0.5-8.7c-0.7-5.9-3.6-10.4-8.8-13.4c-1.5-0.9-2.9-1.9-4.4-2.9
			c-10.6-7.2-11.5-22.7-4.5-31.5c2.3-2.9,5.1-5.3,8.1-7.5c3.2-2.4,6.5-4.7,9.6-7.2c3.7-3,5.3-6.9,4.6-11.7c-0.2-1.3-0.4-2.7-0.7-4
			c-1.4-6.2-4.3-11.5-9.8-15.3c-1.7-1.2-3.1-1.3-5.1-0.2c-21,11.5-39,26.6-53.6,45.5c-19.4,25.2-29.7,53.7-31.1,85.4
			c-0.7,16.3,1,32.3,5.1,48.1C134.8,328.1,136.1,332.2,137.3,336.4z M436.6,310.1c-0.3,0.1-0.4,0.1-0.4,0.2
			c-0.2,0.2-0.4,0.5-0.6,0.8c-4.8,6.7-10.2,13-16.7,18.1c-8.3,6.7-17.5,10.6-28.5,9.1c-1.5-0.2-3.1,0-4.6,0c0.4,2.7,1,5.3,1.3,7.9
			c0.7,6.6-1.4,12.3-6.4,16.8c-4.2,3.8-9.2,6.3-14.5,8.3c-2.1,0.8-2.8,1.9-2.7,4c0.1,6.4,0.2,12.9,0.2,19.3
			c0.1,6.7,0.1,13.4,0.2,20.2c0,0.5,0,0.9,0,1.4c0.1,0,0.3,0.1,0.4,0.1C403.5,391.2,427.7,356,436.6,310.1z"/>
	</g>
</g>
</svg>
