<svg width="36" height="36" viewBox="0 0 36 36" fill="none" xmlns="http://www.w3.org/2000/svg">
<path d="M33.3039 6.20691H2.69613C1.20705 6.20691 0 7.41396 0 8.90304V27.097C0 28.586 1.20705 29.7932 2.69613 29.7932H33.3039C34.7929 29.7932 36 28.5861 36 27.097V8.90304C36 7.41396 34.7929 6.20691 33.3039 6.20691Z" fill="#41479B"/>
<path d="M35.9627 8.45734C35.7502 7.18054 34.641 6.20685 33.3039 6.20685H32.6024L21.1035 13.7406V6.20692H14.8965V13.7407L3.39764 6.20692H2.69613C1.359 6.20692 0.24982 7.18054 0.0373359 8.45741L9.86548 14.8966H0V21.1035H9.86548L0.0373359 27.5426C0.24982 28.8194 1.359 29.7931 2.69613 29.7931H3.39764L14.8965 22.2593V29.7931H21.1035V22.2593L32.6024 29.7931H33.3039C34.641 29.7931 35.7502 28.8195 35.9627 27.5426L26.1345 21.1034H36V14.8965H26.1345L35.9627 8.45734Z" fill="#F5F5F5"/>
<path d="M19.8621 6.20691H16.1379V16.1379H0V19.8621H16.1379V29.7931H19.8621V19.8621H36V16.1379H19.8621V6.20691Z" fill="#FF4B55"/>
<path d="M1.74313 29.6193L14.8623 21.1035H12.5822L0.648438 28.8499C0.940445 29.1907 1.3157 29.4578 1.74313 29.6193Z" fill="#FF4B55"/>
<path d="M24.3553 21.1035H22.0752L34.7818 29.3515C35.1374 29.118 35.4341 28.8025 35.6457 28.4321L24.3553 21.1035Z" fill="#FF4B55"/>
<path d="M0.284668 7.69746L11.3751 14.8966H13.6552L1.08806 6.73889C0.750629 6.99005 0.474512 7.31841 0.284668 7.69746Z" fill="#FF4B55"/>
<path d="M23.3836 14.8965L35.3392 7.13579C35.044 6.79611 34.6657 6.53061 34.2354 6.37219L21.1035 14.8965H23.3836Z" fill="#FF4B55"/>
</svg>
