<svg width="36" height="36" viewBox="0 0 36 36" fill="none" xmlns="http://www.w3.org/2000/svg">
<path d="M33.3039 6.20685H2.69613C1.20705 6.20685 0 7.4139 0 8.90298V27.097C0 28.5861 1.20705 29.7932 2.69613 29.7932H33.3039C34.7929 29.7932 36 28.5861 36 27.097V8.90298C36 7.4139 34.7929 6.20685 33.3039 6.20685Z" fill="#41479B"/>
<path d="M18.2521 8.90748L18.501 9.65371L19.2876 9.65983C19.3895 9.6606 19.4317 9.79054 19.3498 9.85108L18.7169 10.3184L18.9542 11.0683C18.9849 11.1654 18.8744 11.2458 18.7915 11.1865L18.1516 10.7291L17.5117 11.1865C17.4288 11.2457 17.3182 11.1654 17.349 11.0683L17.5862 10.3184L16.9534 9.85108C16.8715 9.79054 16.9137 9.6606 17.0155 9.65983L17.8021 9.65371L18.051 8.90748C18.0832 8.81087 18.2199 8.81087 18.2521 8.90748Z" fill="#FFE15A"/>
<path d="M18.2521 24.9291L18.501 25.6753L19.2876 25.6814C19.3895 25.6822 19.4317 25.8121 19.3498 25.8727L18.7169 26.34L18.9542 27.0899C18.9849 27.187 18.8744 27.2674 18.7915 27.2081L18.1516 26.7507L17.5117 27.2081C17.4288 27.2673 17.3182 27.187 17.349 27.0899L17.5862 26.34L16.9534 25.8727C16.8715 25.8121 16.9137 25.6822 17.0155 25.6814L17.8021 25.6753L18.051 24.9291C18.0832 24.8324 18.2199 24.8324 18.2521 24.9291Z" fill="#FFE15A"/>
<path d="M26.2629 16.9182L26.5118 17.6645L27.2984 17.6706C27.4002 17.6714 27.4424 17.8013 27.3605 17.8618L26.7277 18.3291L26.9649 19.0791C26.9957 19.1761 26.8851 19.2566 26.8022 19.1973L26.1623 18.7398L25.5224 19.1973C25.4396 19.2565 25.329 19.1762 25.3597 19.0791L25.5969 18.3291L24.9641 17.8618C24.8822 17.8013 24.9244 17.6714 25.0263 17.6706L25.8129 17.6645L26.0618 16.9182C26.0939 16.8217 26.2307 16.8217 26.2629 16.9182Z" fill="#FFE15A"/>
<path d="M10.2414 16.9182L10.4903 17.6645L11.2769 17.6706C11.3788 17.6714 11.4209 17.8013 11.339 17.8618L10.7062 18.3291L10.9435 19.0791C10.9742 19.1761 10.8636 19.2566 10.7808 19.1973L10.1408 18.7398L9.50092 19.1973C9.41809 19.2565 9.30749 19.1762 9.33822 19.0791L9.57545 18.3291L8.94264 17.8618C8.86073 17.8013 8.90292 17.6714 9.0048 17.6706L9.79138 17.6645L10.0403 16.9182C10.0725 16.8217 10.2093 16.8217 10.2414 16.9182Z" fill="#FFE15A"/>
<path d="M11.444 12.7349L11.6929 13.4812L12.4795 13.4873C12.5814 13.488 12.6236 13.618 12.5417 13.6785L11.9089 14.1458L12.1461 14.8958C12.1768 14.9928 12.0663 15.0732 11.9834 15.014L11.3435 14.5565L10.7036 15.014C10.6207 15.0732 10.5101 14.9929 10.5409 14.8958L10.7781 14.1458L10.1453 13.6785C10.0634 13.618 10.1056 13.488 10.2074 13.4873L10.994 13.4812L11.2429 12.7349C11.2751 12.6383 11.4117 12.6383 11.444 12.7349Z" fill="#FFE15A"/>
<path d="M25.319 20.7457L25.5679 21.4919L26.3545 21.498C26.4564 21.4988 26.4986 21.6287 26.4167 21.6893L25.7839 22.1566L26.0211 22.9065C26.0518 23.0037 25.9413 23.084 25.8584 23.0247L25.2185 22.5673L24.5786 23.0247C24.4957 23.0839 24.3851 23.0036 24.4159 22.9065L24.6531 22.1566L24.0203 21.6893C23.9384 21.6287 23.9806 21.4988 24.0824 21.498L24.869 21.4919L25.1179 20.7457C25.1501 20.6491 25.2868 20.6491 25.319 20.7457Z" fill="#FFE15A"/>
<path d="M22.387 9.80275L22.6359 10.549L23.4225 10.5551C23.5243 10.5559 23.5665 10.6858 23.4846 10.7463L22.8518 11.2136L23.089 11.9636C23.1198 12.0606 23.0092 12.1411 22.9263 12.0818L22.2864 11.6243L21.6464 12.0818C21.5636 12.141 21.453 12.0607 21.4837 11.9636L21.721 11.2136L21.0881 10.7463C21.0062 10.6858 21.0484 10.5559 21.1503 10.5551L21.9369 10.549L22.1858 9.80275C22.218 9.70621 22.3546 9.70621 22.387 9.80275Z" fill="#FFE15A"/>
<path d="M14.3761 23.678L14.6251 24.4242L15.4116 24.4303C15.5135 24.4311 15.5557 24.561 15.4738 24.6216L14.841 25.0889L15.0782 25.8388C15.1089 25.9358 14.9984 26.0163 14.9155 25.957L14.2756 25.4996L13.6357 25.957C13.5529 26.0162 13.4423 25.9359 13.473 25.8388L13.7102 25.0889L13.0774 24.6216C12.9955 24.561 13.0377 24.4311 13.1396 24.4303L13.9261 24.4243L14.1751 23.678C14.2073 23.5813 14.344 23.5813 14.3761 23.678Z" fill="#FFE15A"/>
<path d="M25.1179 12.7349L24.869 13.4812L24.0824 13.4873C23.9806 13.488 23.9384 13.618 24.0203 13.6785L24.6531 14.1458L24.4159 14.8958C24.3851 14.9928 24.4957 15.0732 24.5786 15.014L25.2185 14.5565L25.8584 15.014C25.9412 15.0732 26.0518 14.9929 26.0211 14.8958L25.7839 14.1458L26.4167 13.6785C26.4986 13.618 26.4564 13.488 26.3545 13.4873L25.5679 13.4812L25.319 12.7349C25.2868 12.6383 25.1501 12.6383 25.1179 12.7349Z" fill="#FFE15A"/>
<path d="M11.2429 20.7457L10.994 21.4919L10.2074 21.498C10.1056 21.4988 10.0634 21.6287 10.1453 21.6893L10.7781 22.1566L10.5409 22.9065C10.5101 23.0037 10.6207 23.084 10.7036 23.0247L11.3435 22.5673L11.9834 23.0247C12.0662 23.0839 12.1768 23.0036 12.1461 22.9065L11.9089 22.1566L12.5417 21.6893C12.6236 21.6287 12.5814 21.4988 12.4795 21.498L11.6929 21.4919L11.444 20.7457C11.4117 20.6491 11.2751 20.6491 11.2429 20.7457Z" fill="#FFE15A"/>
<path d="M14.1751 9.80275L13.9261 10.549L13.1396 10.5551C13.0377 10.5559 12.9955 10.6858 13.0774 10.7463L13.7102 11.2136L13.473 11.9636C13.4423 12.0606 13.5528 12.1411 13.6357 12.0818L14.2756 11.6243L14.9155 12.0818C14.9983 12.141 15.1089 12.0607 15.0782 11.9636L14.841 11.2136L15.4738 10.7463C15.5557 10.6858 15.5135 10.5559 15.4116 10.5551L14.6251 10.549L14.3761 9.80275C14.3439 9.70621 14.2073 9.70621 14.1751 9.80275Z" fill="#FFE15A"/>
<path d="M22.1858 23.678L21.9369 24.4242L21.1503 24.4303C21.0484 24.4311 21.0062 24.561 21.0881 24.6216L21.721 25.0889L21.4837 25.8388C21.453 25.9358 21.5635 26.0163 21.6464 25.957L22.2863 25.4996L22.9263 25.957C23.0091 26.0162 23.1197 25.9359 23.089 25.8388L22.8517 25.0889L23.4845 24.6216C23.5665 24.561 23.5243 24.4311 23.4224 24.4303L22.6358 24.4243L22.3869 23.678C22.3546 23.5813 22.218 23.5813 22.1858 23.678Z" fill="#FFE15A"/>
</svg>
