<svg width="36" height="36" viewBox="0 0 36 36" fill="none" xmlns="http://www.w3.org/2000/svg">
<path d="M33.3039 6.20691H2.69613C1.20705 6.20691 0 7.41396 0 8.90304V27.097C0 28.586 1.20705 29.7932 2.69613 29.7932H33.3039C34.7929 29.7932 36 28.5861 36 27.097V8.90304C36 7.41396 34.7929 6.20691 33.3039 6.20691Z" fill="#F5F5F5"/>
<path d="M0.148438 8.02125H35.8518C35.4865 6.96537 34.4841 6.20691 33.304 6.20691H2.69628C1.51616 6.20691 0.513852 6.96537 0.148438 8.02125Z" fill="#FF4B55"/>
<path d="M36 13.4642H0V15.2784H36V13.4642Z" fill="#FF4B55"/>
<path d="M36 9.83533H0V11.6496H36V9.83533Z" fill="#FF4B55"/>
<path d="M0 18.2864C0 18.6292 0.277945 18.9072 0.620719 18.9072H36V17.0928H0V18.2864Z" fill="#FF4B55"/>
<path d="M36 24.3506H0V26.165H36V24.3506Z" fill="#FF4B55"/>
<path d="M35.8519 27.9788H0.148438C0.513852 29.0346 1.51623 29.7931 2.69628 29.7931H33.304C34.4841 29.7931 35.4864 29.0346 35.8519 27.9788Z" fill="#FF4B55"/>
<path d="M36 20.7218H0V22.5361H36V20.7218Z" fill="#FF4B55"/>
<path d="M0.620719 18.9072H16.138C16.4808 18.9072 16.7587 18.6292 16.7587 18.2865V6.82757C16.7587 6.48472 16.4808 6.20685 16.138 6.20685H2.69613C1.20705 6.20692 0 7.41397 0 8.90305V18.2865C0 18.6293 0.277945 18.9072 0.620719 18.9072Z" fill="#41479B"/>
<path d="M1.74279 7.63163L1.88018 8.04366L2.3145 8.04697C2.37075 8.04746 2.39402 8.11918 2.34881 8.15258L1.99943 8.41055L2.13049 8.82462C2.14751 8.8782 2.08641 8.92264 2.04063 8.88987L1.68731 8.63738L1.33399 8.88994C1.28822 8.92271 1.22726 8.87827 1.24413 8.82469L1.3752 8.41062L1.02581 8.15265C0.980603 8.11918 1.00388 8.04746 1.06013 8.04704L1.49445 8.04373L1.63184 7.6317C1.64956 7.57826 1.72493 7.57826 1.74279 7.63163Z" fill="#F5F5F5"/>
<path d="M1.74279 9.78685L1.88018 10.1989L2.3145 10.2022C2.37075 10.2027 2.39402 10.2743 2.34881 10.3078L1.99943 10.5658L2.13049 10.9799C2.14751 11.0335 2.08641 11.0779 2.04063 11.0452L1.68731 10.7927L1.33399 11.0452C1.28822 11.0779 1.22726 11.0336 1.24413 10.98L1.3752 10.5659L1.02581 10.3079C0.980603 10.2744 1.00388 10.2027 1.06013 10.2023L1.49445 10.199L1.63184 9.78692C1.64956 9.73355 1.72493 9.73355 1.74279 9.78685Z" fill="#F5F5F5"/>
<path d="M1.74279 11.9423L1.88018 12.3543L2.3145 12.3576C2.37075 12.3581 2.39402 12.4298 2.34881 12.4632L1.99943 12.7213L2.13049 13.1354C2.14751 13.1889 2.08641 13.2334 2.04063 13.2006L1.68731 12.9481L1.33399 13.2007C1.28822 13.2334 1.22726 13.1891 1.24413 13.1354L1.3752 12.7214L1.02581 12.4633C0.980603 12.4298 1.00388 12.3582 1.06013 12.3577L1.49445 12.3544L1.63184 11.9424C1.64956 11.8889 1.72493 11.8889 1.74279 11.9423Z" fill="#F5F5F5"/>
<path d="M1.74279 14.0976L1.88018 14.5097L2.3145 14.513C2.37075 14.5135 2.39402 14.5852 2.34881 14.6186L1.99943 14.8766L2.13049 15.2907C2.14751 15.3443 2.08641 15.3887 2.04063 15.3559L1.68731 15.1035L1.33399 15.356C1.28822 15.3887 1.22726 15.3443 1.24413 15.2908L1.3752 14.8767L1.02581 14.6186C0.980603 14.5853 1.00388 14.5135 1.06013 14.513L1.49445 14.5097L1.63184 14.0977C1.64956 14.0443 1.72493 14.0443 1.74279 14.0976Z" fill="#F5F5F5"/>
<path d="M1.74279 16.253L1.88018 16.6651L2.3145 16.6684C2.37075 16.6689 2.39402 16.7405 2.34881 16.774L1.99943 17.032L2.13049 17.4461C2.14751 17.4997 2.08641 17.5441 2.04063 17.5113L1.68731 17.2589L1.33399 17.5114C1.28822 17.5441 1.22726 17.4997 1.24413 17.4462L1.3752 17.0321L1.02581 16.7741C0.980603 16.7406 1.00388 16.6689 1.06013 16.6684L1.49445 16.6651L1.63184 16.2531C1.64956 16.1997 1.72493 16.1997 1.74279 16.253Z" fill="#F5F5F5"/>
<path d="M3.41564 8.68823L3.55303 9.10026L3.98735 9.10357C4.0436 9.10406 4.06687 9.17578 4.02166 9.20918L3.67228 9.46722L3.80334 9.8813C3.82036 9.93488 3.75926 9.97931 3.71348 9.94655L3.36016 9.69398L3.00685 9.94655C2.96107 9.97924 2.90011 9.93488 2.91699 9.8813L3.04805 9.46722L2.69867 9.20918C2.65345 9.17571 2.67673 9.10406 2.73298 9.10357L3.1673 9.10026L3.30469 8.68823C3.32241 8.63493 3.39785 8.63493 3.41564 8.68823Z" fill="#F5F5F5"/>
<path d="M3.41564 10.8437L3.55303 11.2557L3.98735 11.259C4.0436 11.2595 4.06687 11.3312 4.02166 11.3646L3.67228 11.6227L3.80334 12.0367C3.82036 12.0903 3.75926 12.1348 3.71348 12.102L3.36016 11.8494L3.00685 12.102C2.96107 12.1347 2.90011 12.0904 2.91699 12.0367L3.04805 11.6227L2.69867 11.3646C2.65345 11.3313 2.67673 11.2595 2.73298 11.259L3.1673 11.2557L3.30469 10.8437C3.32241 10.7903 3.39785 10.7903 3.41564 10.8437Z" fill="#F5F5F5"/>
<path d="M3.41564 12.999L3.55303 13.411L3.98735 13.4143C4.0436 13.4148 4.06687 13.4865 4.02166 13.52L3.67228 13.778L3.80334 14.1921C3.82036 14.2456 3.75926 14.2901 3.71348 14.2573L3.36016 14.0048L3.00685 14.2573C2.96107 14.29 2.90011 14.2456 2.91699 14.1921L3.04805 13.778L2.69867 13.52C2.65345 13.4865 2.67673 13.4148 2.73298 13.4143L3.1673 13.411L3.30469 12.999C3.32241 12.9456 3.39785 12.9456 3.41564 12.999Z" fill="#F5F5F5"/>
<path d="M3.41564 15.1544L3.55303 15.5664L3.98735 15.5697C4.0436 15.5702 4.06687 15.6419 4.02166 15.6754L3.67228 15.9334L3.80334 16.3475C3.82036 16.4011 3.75926 16.4455 3.71348 16.4127L3.36016 16.1602L3.00685 16.4127C2.96107 16.4455 2.90011 16.4011 2.91699 16.3475L3.04805 15.9334L2.69867 15.6754C2.65345 15.6419 2.67673 15.5702 2.73298 15.5697L3.1673 15.5664L3.30469 15.1544C3.32241 15.1011 3.39785 15.1011 3.41564 15.1544Z" fill="#F5F5F5"/>
<path d="M5.08898 7.63152L5.22637 8.04355L5.66069 8.04685C5.71694 8.04734 5.74021 8.11906 5.695 8.15246L5.34562 8.41044L5.47668 8.82451C5.4937 8.87809 5.4326 8.92252 5.38682 8.88976L5.0335 8.6372L4.68018 8.88976C4.63441 8.92252 4.57345 8.87809 4.59033 8.82451L4.72139 8.41044L4.37201 8.15246C4.32679 8.11899 4.35007 8.04727 4.40632 8.04685L4.84064 8.04355L4.97803 7.63152C4.99575 7.57815 5.07119 7.57815 5.08898 7.63152Z" fill="#F5F5F5"/>
<path d="M5.08898 9.78686L5.22637 10.1989L5.66069 10.2022C5.71694 10.2027 5.74021 10.2743 5.695 10.3078L5.34562 10.5659L5.47668 10.9799C5.4937 11.0335 5.4326 11.0779 5.38682 11.0452L5.0335 10.7926L4.68018 11.0452C4.63441 11.0779 4.57345 11.0335 4.59033 10.9799L4.72139 10.5659L4.37201 10.3078C4.32679 10.2743 4.35007 10.2027 4.40632 10.2022L4.84064 10.1989L4.97803 9.78686C4.99575 9.73356 5.07119 9.73356 5.08898 9.78686Z" fill="#F5F5F5"/>
<path d="M5.08898 11.9423L5.22637 12.3543L5.66069 12.3576C5.71694 12.3581 5.74021 12.4298 5.695 12.4633L5.34562 12.7213L5.47668 13.1354C5.4937 13.1889 5.4326 13.2334 5.38682 13.2006L5.0335 12.9481L4.68018 13.2006C4.63441 13.2333 4.57345 13.189 4.59033 13.1354L4.72139 12.7213L4.37201 12.4633C4.32679 12.4298 4.35007 12.3581 4.40632 12.3576L4.84064 12.3543L4.97803 11.9423C4.99575 11.8889 5.07119 11.8889 5.08898 11.9423Z" fill="#F5F5F5"/>
<path d="M5.08898 14.0976L5.22637 14.5097L5.66069 14.513C5.71694 14.5135 5.74021 14.5852 5.695 14.6186L5.34562 14.8766L5.47668 15.2907C5.4937 15.3443 5.4326 15.3887 5.38682 15.356L5.0335 15.1034L4.68018 15.356C4.63441 15.3886 4.57345 15.3443 4.59033 15.2907L4.72139 14.8766L4.37201 14.6186C4.32679 14.5853 4.35007 14.5135 4.40632 14.513L4.84064 14.5097L4.97803 14.0976C4.99575 14.0443 5.07119 14.0443 5.08898 14.0976Z" fill="#F5F5F5"/>
<path d="M5.08898 16.253L5.22637 16.6651L5.66069 16.6684C5.71694 16.6689 5.74021 16.7405 5.695 16.774L5.34562 17.032L5.47668 17.4461C5.4937 17.4997 5.4326 17.5441 5.38682 17.5114L5.0335 17.2588L4.68018 17.5114C4.63441 17.5441 4.57345 17.4997 4.59033 17.4461L4.72139 17.032L4.37201 16.774C4.32679 16.7405 4.35007 16.6689 4.40632 16.6684L4.84064 16.6651L4.97803 16.253C4.99575 16.1997 5.07119 16.1997 5.08898 16.253Z" fill="#F5F5F5"/>
<path d="M6.76183 8.68823L6.89922 9.10026L7.33355 9.10357C7.3898 9.10406 7.41307 9.17578 7.36786 9.20918L7.01847 9.46722L7.14954 9.8813C7.16655 9.93488 7.10545 9.97931 7.05968 9.94655L6.70636 9.69398L6.35304 9.94655C6.30726 9.97924 6.2463 9.93488 6.26318 9.8813L6.39424 9.46722L6.04486 9.20918C5.99965 9.17571 6.02292 9.10406 6.07917 9.10357L6.51349 9.10026L6.65088 8.68823C6.66853 8.63493 6.74404 8.63493 6.76183 8.68823Z" fill="#F5F5F5"/>
<path d="M6.76183 10.8437L6.89922 11.2557L7.33355 11.259C7.3898 11.2595 7.41307 11.3312 7.36786 11.3646L7.01847 11.6227L7.14954 12.0367C7.16655 12.0903 7.10545 12.1348 7.05968 12.102L6.70636 11.8494L6.35304 12.102C6.30726 12.1347 6.2463 12.0904 6.26318 12.0367L6.39424 11.6227L6.04486 11.3646C5.99965 11.3313 6.02292 11.2595 6.07917 11.259L6.51349 11.2557L6.65088 10.8437C6.66853 10.7903 6.74404 10.7903 6.76183 10.8437Z" fill="#F5F5F5"/>
<path d="M6.76183 12.999L6.89922 13.411L7.33355 13.4143C7.3898 13.4148 7.41307 13.4865 7.36786 13.52L7.01847 13.778L7.14954 14.1921C7.16655 14.2456 7.10545 14.2901 7.05968 14.2573L6.70636 14.0048L6.35304 14.2573C6.30726 14.29 6.2463 14.2456 6.26318 14.1921L6.39424 13.778L6.04486 13.52C5.99965 13.4865 6.02292 13.4148 6.07917 13.4143L6.51349 13.411L6.65088 12.999C6.66853 12.9456 6.74404 12.9456 6.76183 12.999Z" fill="#F5F5F5"/>
<path d="M6.76183 15.1544L6.89922 15.5664L7.33355 15.5697C7.3898 15.5702 7.41307 15.6419 7.36786 15.6754L7.01847 15.9334L7.14954 16.3475C7.16655 16.4011 7.10545 16.4455 7.05968 16.4127L6.70636 16.1602L6.35304 16.4127C6.30726 16.4455 6.2463 16.4011 6.26318 16.3475L6.39424 15.9334L6.04486 15.6754C5.99965 15.6419 6.02292 15.5702 6.07917 15.5697L6.51349 15.5664L6.65088 15.1544C6.66853 15.1011 6.74404 15.1011 6.76183 15.1544Z" fill="#F5F5F5"/>
<path d="M8.43476 7.63163L8.57215 8.04366L9.00647 8.04697C9.06272 8.04746 9.08599 8.11918 9.04078 8.15258L8.6914 8.41055L8.82246 8.82462C8.83948 8.8782 8.77837 8.92264 8.7326 8.88987L8.37921 8.63738L8.02589 8.88994C7.98012 8.92271 7.91915 8.87827 7.93603 8.82469L8.06709 8.41062L7.71771 8.15265C7.6725 8.11918 7.69577 8.04746 7.75202 8.04704L8.18634 8.04373L8.32373 7.6317C8.34152 7.57826 8.41697 7.57826 8.43476 7.63163Z" fill="#F5F5F5"/>
<path d="M8.43476 9.78686L8.57215 10.1989L9.00647 10.2022C9.06272 10.2027 9.08599 10.2743 9.04078 10.3078L8.6914 10.5659L8.82246 10.9799C8.83948 11.0335 8.77837 11.0779 8.7326 11.0452L8.37921 10.7926L8.02589 11.0452C7.98012 11.0779 7.91915 11.0335 7.93603 10.9799L8.06709 10.5659L7.71771 10.3078C7.6725 10.2743 7.69577 10.2027 7.75202 10.2022L8.18634 10.1989L8.32373 9.78686C8.34152 9.73356 8.41697 9.73356 8.43476 9.78686Z" fill="#F5F5F5"/>
<path d="M8.43476 11.9423L8.57215 12.3543L9.00647 12.3577C9.06272 12.3581 9.08599 12.4298 9.04078 12.4633L8.6914 12.7213L8.82246 13.1354C8.83948 13.189 8.77837 13.2334 8.7326 13.2006L8.37921 12.948L8.02589 13.2006C7.98012 13.2333 7.91915 13.1889 7.93603 13.1353L8.06709 12.7212L7.71771 12.4632C7.6725 12.4297 7.69577 12.3581 7.75202 12.3576L8.18634 12.3543L8.32373 11.9422C8.34152 11.889 8.41697 11.8889 8.43476 11.9423Z" fill="#F5F5F5"/>
<path d="M8.43476 14.0976L8.57215 14.5097L9.00647 14.513C9.06272 14.5135 9.08599 14.5852 9.04078 14.6186L8.6914 14.8766L8.82246 15.2907C8.83948 15.3443 8.77837 15.3887 8.7326 15.356L8.37921 15.1034L8.02589 15.356C7.98012 15.3886 7.91915 15.3443 7.93603 15.2907L8.06709 14.8766L7.71771 14.6186C7.6725 14.5853 7.69577 14.5135 7.75202 14.513L8.18634 14.5097L8.32373 14.0976C8.34152 14.0443 8.41697 14.0443 8.43476 14.0976Z" fill="#F5F5F5"/>
<path d="M8.43476 16.253L8.57215 16.6651L9.00647 16.6684C9.06272 16.6689 9.08599 16.7405 9.04078 16.774L8.6914 17.032L8.82246 17.4461C8.83948 17.4997 8.77837 17.5441 8.7326 17.5114L8.37921 17.2588L8.02589 17.5114C7.98012 17.5441 7.91915 17.4997 7.93603 17.4461L8.06709 17.032L7.71771 16.774C7.6725 16.7405 7.69577 16.6689 7.75202 16.6684L8.18634 16.6651L8.32373 16.253C8.34152 16.1997 8.41697 16.1997 8.43476 16.253Z" fill="#F5F5F5"/>
<path d="M10.1075 8.68823L10.2449 9.10026L10.6792 9.10357C10.7355 9.10406 10.7588 9.17578 10.7136 9.20918L10.3642 9.46722L10.4952 9.8813C10.5122 9.93488 10.4511 9.97931 10.4054 9.94655L10.0521 9.69398L9.69874 9.94655C9.65296 9.97924 9.592 9.93488 9.60888 9.8813L9.73994 9.46722L9.39056 9.20918C9.34535 9.17571 9.36862 9.10406 9.42487 9.10357L9.85919 9.10026L9.99658 8.68823C10.0144 8.63493 10.0897 8.63493 10.1075 8.68823Z" fill="#F5F5F5"/>
<path d="M10.1075 10.8437L10.2449 11.2557L10.6792 11.259C10.7355 11.2595 10.7588 11.3312 10.7136 11.3646L10.3642 11.6227L10.4952 12.0367C10.5122 12.0903 10.4511 12.1348 10.4054 12.102L10.0521 11.8494L9.69874 12.102C9.65296 12.1347 9.592 12.0904 9.60888 12.0367L9.73994 11.6227L9.39056 11.3646C9.34535 11.3313 9.36862 11.2595 9.42487 11.259L9.85919 11.2557L9.99658 10.8437C10.0144 10.7903 10.0897 10.7903 10.1075 10.8437Z" fill="#F5F5F5"/>
<path d="M10.1075 12.999L10.2449 13.411L10.6792 13.4143C10.7355 13.4148 10.7588 13.4865 10.7136 13.52L10.3642 13.778L10.4952 14.1921C10.5122 14.2456 10.4511 14.2901 10.4054 14.2573L10.0521 14.0048L9.69874 14.2573C9.65296 14.29 9.592 14.2456 9.60888 14.1921L9.73994 13.778L9.39056 13.52C9.34535 13.4865 9.36862 13.4148 9.42487 13.4143L9.85919 13.411L9.99658 12.999C10.0144 12.9456 10.0897 12.9456 10.1075 12.999Z" fill="#F5F5F5"/>
<path d="M10.1075 15.1544L10.2449 15.5664L10.6792 15.5697C10.7355 15.5702 10.7588 15.6419 10.7136 15.6754L10.3642 15.9334L10.4952 16.3475C10.5122 16.4011 10.4511 16.4455 10.4054 16.4127L10.0521 16.1602L9.69874 16.4127C9.65296 16.4455 9.592 16.4011 9.60888 16.3475L9.73994 15.9334L9.39056 15.6754C9.34535 15.6419 9.36862 15.5702 9.42487 15.5697L9.85919 15.5664L9.99658 15.1544C10.0144 15.1011 10.0897 15.1011 10.1075 15.1544Z" fill="#F5F5F5"/>
<path d="M11.7804 7.63152L11.9178 8.04355L12.3521 8.04685C12.4083 8.04734 12.4316 8.11906 12.3864 8.15246L12.037 8.41044L12.1681 8.82451C12.1851 8.87809 12.124 8.92252 12.0782 8.88976L11.7249 8.6372L11.3716 8.88976C11.3258 8.92252 11.2649 8.87809 11.2817 8.82451L11.4128 8.41044L11.0634 8.15246C11.0182 8.11899 11.0415 8.04727 11.0977 8.04685L11.532 8.04355L11.6694 7.63152C11.6871 7.57815 11.7626 7.57815 11.7804 7.63152Z" fill="#F5F5F5"/>
<path d="M11.7804 9.78686L11.9178 10.1989L12.3521 10.2022C12.4083 10.2027 12.4316 10.2743 12.3864 10.3078L12.037 10.5659L12.1681 10.9799C12.1851 11.0335 12.124 11.0779 12.0782 11.0452L11.7249 10.7926L11.3716 11.0452C11.3258 11.0779 11.2649 11.0335 11.2817 10.9799L11.4128 10.5659L11.0634 10.3078C11.0182 10.2743 11.0415 10.2027 11.0977 10.2022L11.532 10.1989L11.6694 9.78686C11.6871 9.73356 11.7626 9.73356 11.7804 9.78686Z" fill="#F5F5F5"/>
<path d="M11.7804 11.9423L11.9178 12.3543L12.3521 12.3576C12.4083 12.3581 12.4316 12.4298 12.3864 12.4633L12.037 12.7213L12.1681 13.1354C12.1851 13.1889 12.124 13.2334 12.0782 13.2006L11.7249 12.9481L11.3716 13.2006C11.3258 13.2333 11.2649 13.189 11.2817 13.1354L11.4128 12.7213L11.0634 12.4633C11.0182 12.4298 11.0415 12.3581 11.0977 12.3576L11.532 12.3543L11.6694 11.9423C11.6871 11.8889 11.7626 11.8889 11.7804 11.9423Z" fill="#F5F5F5"/>
<path d="M11.7804 14.0976L11.9178 14.5097L12.3521 14.513C12.4083 14.5135 12.4316 14.5852 12.3864 14.6186L12.037 14.8766L12.1681 15.2907C12.1851 15.3443 12.124 15.3887 12.0782 15.356L11.7249 15.1034L11.3716 15.356C11.3258 15.3886 11.2649 15.3443 11.2817 15.2907L11.4128 14.8766L11.0634 14.6186C11.0182 14.5853 11.0415 14.5135 11.0977 14.513L11.532 14.5097L11.6694 14.0976C11.6871 14.0443 11.7626 14.0443 11.7804 14.0976Z" fill="#F5F5F5"/>
<path d="M11.7804 16.253L11.9178 16.6651L12.3521 16.6684C12.4083 16.6689 12.4316 16.7405 12.3864 16.774L12.037 17.032L12.1681 17.4461C12.1851 17.4997 12.124 17.5441 12.0782 17.5114L11.7249 17.2588L11.3716 17.5114C11.3258 17.5441 11.2649 17.4997 11.2817 17.4461L11.4128 17.032L11.0634 16.774C11.0182 16.7405 11.0415 16.6689 11.0977 16.6684L11.532 16.6651L11.6694 16.253C11.6871 16.1997 11.7626 16.1997 11.7804 16.253Z" fill="#F5F5F5"/>
<path d="M13.4537 8.68823L13.5911 9.10026L14.0254 9.10357C14.0817 9.10406 14.105 9.17578 14.0597 9.20918L13.7104 9.46722L13.8414 9.8813C13.8584 9.93488 13.7973 9.97931 13.7516 9.94655L13.3982 9.69398L13.0449 9.94655C12.9992 9.97924 12.9382 9.93488 12.9551 9.8813L13.0861 9.46722L12.7368 9.20918C12.6915 9.17571 12.7148 9.10406 12.7711 9.10357L13.2054 9.10026L13.3428 8.68823C13.3605 8.63493 13.4359 8.63493 13.4537 8.68823Z" fill="#F5F5F5"/>
<path d="M13.4537 10.8437L13.5911 11.2557L14.0254 11.259C14.0817 11.2595 14.105 11.3312 14.0597 11.3646L13.7104 11.6227L13.8414 12.0367C13.8584 12.0903 13.7973 12.1348 13.7516 12.102L13.3982 11.8494L13.0449 12.102C12.9992 12.1347 12.9382 12.0904 12.9551 12.0367L13.0861 11.6227L12.7368 11.3646C12.6915 11.3313 12.7148 11.2595 12.7711 11.259L13.2054 11.2557L13.3428 10.8437C13.3605 10.7903 13.4359 10.7903 13.4537 10.8437Z" fill="#F5F5F5"/>
<path d="M13.4537 12.999L13.5911 13.411L14.0254 13.4143C14.0817 13.4148 14.105 13.4865 14.0597 13.52L13.7104 13.778L13.8414 14.1921C13.8584 14.2456 13.7973 14.2901 13.7516 14.2573L13.3982 14.0048L13.0449 14.2573C12.9992 14.29 12.9382 14.2456 12.9551 14.1921L13.0861 13.778L12.7368 13.52C12.6915 13.4865 12.7148 13.4148 12.7711 13.4143L13.2054 13.411L13.3428 12.999C13.3605 12.9456 13.4359 12.9456 13.4537 12.999Z" fill="#F5F5F5"/>
<path d="M13.4537 15.1544L13.5911 15.5664L14.0254 15.5697C14.0817 15.5702 14.105 15.6419 14.0597 15.6754L13.7104 15.9334L13.8414 16.3475C13.8584 16.4011 13.7973 16.4455 13.7516 16.4127L13.3982 16.1602L13.0449 16.4127C12.9992 16.4455 12.9382 16.4011 12.9551 16.3475L13.0861 15.9334L12.7368 15.6754C12.6915 15.6419 12.7148 15.5702 12.7711 15.5697L13.2054 15.5664L13.3428 15.1544C13.3605 15.1011 13.4359 15.1011 13.4537 15.1544Z" fill="#F5F5F5"/>
<path d="M15.1266 7.63152L15.264 8.04355L15.6983 8.04685C15.7545 8.04734 15.7778 8.11906 15.7326 8.15246L15.3832 8.41044L15.5143 8.82451C15.5313 8.87809 15.4702 8.92252 15.4244 8.88976L15.0711 8.6372L14.7178 8.88976C14.672 8.92252 14.611 8.87809 14.6279 8.82451L14.759 8.41044L14.4096 8.15246C14.3644 8.11899 14.3877 8.04727 14.4439 8.04685L14.8782 8.04355L15.0156 7.63152C15.0333 7.57815 15.1087 7.57815 15.1266 7.63152Z" fill="#F5F5F5"/>
<path d="M15.1266 9.78686L15.264 10.1989L15.6983 10.2022C15.7545 10.2027 15.7778 10.2743 15.7326 10.3078L15.3832 10.5659L15.5143 10.9799C15.5313 11.0335 15.4702 11.0779 15.4244 11.0452L15.0711 10.7926L14.7178 11.0452C14.672 11.0779 14.611 11.0335 14.6279 10.9799L14.759 10.5659L14.4096 10.3078C14.3644 10.2743 14.3877 10.2027 14.4439 10.2022L14.8782 10.1989L15.0156 9.78686C15.0333 9.73356 15.1087 9.73356 15.1266 9.78686Z" fill="#F5F5F5"/>
<path d="M15.1266 11.9423L15.264 12.3543L15.6983 12.3576C15.7545 12.3581 15.7778 12.4298 15.7326 12.4633L15.3832 12.7213L15.5143 13.1354C15.5313 13.1889 15.4702 13.2334 15.4244 13.2006L15.0711 12.9481L14.7178 13.2006C14.672 13.2333 14.611 13.189 14.6279 13.1354L14.759 12.7213L14.4096 12.4633C14.3644 12.4298 14.3877 12.3581 14.4439 12.3576L14.8782 12.3543L15.0156 11.9423C15.0333 11.8889 15.1087 11.8889 15.1266 11.9423Z" fill="#F5F5F5"/>
<path d="M15.1266 14.0976L15.264 14.5097L15.6983 14.513C15.7545 14.5135 15.7778 14.5852 15.7326 14.6186L15.3832 14.8766L15.5143 15.2907C15.5313 15.3443 15.4702 15.3887 15.4244 15.356L15.0711 15.1034L14.7178 15.356C14.672 15.3886 14.611 15.3443 14.6279 15.2907L14.759 14.8766L14.4096 14.6186C14.3644 14.5853 14.3877 14.5135 14.4439 14.513L14.8782 14.5097L15.0156 14.0976C15.0333 14.0443 15.1087 14.0443 15.1266 14.0976Z" fill="#F5F5F5"/>
<path d="M15.1266 16.253L15.264 16.6651L15.6983 16.6684C15.7545 16.6689 15.7778 16.7405 15.7326 16.774L15.3832 17.032L15.5143 17.4461C15.5313 17.4997 15.4702 17.5441 15.4244 17.5114L15.0711 17.2588L14.7178 17.5114C14.672 17.5441 14.611 17.4997 14.6279 17.4461L14.759 17.032L14.4096 16.774C14.3644 16.7405 14.3877 16.6689 14.4439 16.6684L14.8782 16.6651L15.0156 16.253C15.0333 16.1997 15.1087 16.1997 15.1266 16.253Z" fill="#F5F5F5"/>
</svg>
