<svg width="40" height="40" viewBox="0 0 40 40" fill="none" xmlns="http://www.w3.org/2000/svg">
<path d="M21.8499 23.1375V36.07H32.3276C33.6893 36.07 34.7938 34.9493 34.7938 33.5657V23.1375H21.8499Z" fill="#2D2926"/>
<path d="M18.1453 23.1375H5.20581V33.5657C5.20581 34.9493 6.31058 36.07 7.67222 36.07H18.1453V23.1375ZM8.56823 33.4421C8.0569 33.4421 7.64206 33.0209 7.64206 32.5018V27.2838C7.64206 26.7647 8.05698 26.3434 8.56823 26.3434C9.07948 26.3434 9.49441 26.7648 9.49441 27.2838V32.5018C9.49441 33.0209 9.07956 33.4421 8.56823 33.4421Z" fill="#2D2926"/>
<path d="M33.1302 13.3308H28.4979C29.1373 13.0192 29.6736 12.6973 29.998 12.3684C31.9059 10.4313 31.9059 7.28906 29.998 5.35166C29.0427 4.38308 27.7922 3.89886 26.5417 3.89886C25.2911 3.89886 24.0403 4.38308 23.0863 5.35166C22.2941 6.15635 21.5318 8.14254 20.9095 10.1892C20.619 10.1083 20.3198 10.0515 20.0052 10.0515C19.6916 10.0515 19.3923 10.1083 19.103 10.1887C18.4784 8.1235 17.709 6.11034 16.9093 5.2989C15.9553 4.33032 14.7059 3.84619 13.4541 3.84619C12.2034 3.84619 10.9528 4.3304 9.99883 5.2989C8.09086 7.23702 8.09086 10.3786 9.99883 12.3156C10.3402 12.6637 10.9152 13.0041 11.6052 13.3308H6.86938C5.50766 13.3308 4.4043 14.4516 4.4043 15.8341V17.9642C4.4043 19.3468 5.50766 20.4671 6.86938 20.4671H18.1456V13.4302H21.8503V20.467H33.1302C34.4918 20.467 35.5953 19.3467 35.5953 17.9641V15.834C35.5952 14.4516 34.4917 13.3308 33.1302 13.3308ZM24.8329 7.12493C25.2887 6.66182 25.8964 6.40647 26.5417 6.40647C27.188 6.40647 27.7948 6.66182 28.252 7.12493C28.7077 7.58828 28.9586 8.20433 28.9586 8.86005C28.9586 9.51576 28.7077 10.1317 28.2542 10.5922C27.744 11.0809 25.7459 11.8423 23.2757 12.5516C23.2059 12.3084 23.1116 12.0783 22.9923 11.8602C23.6653 9.49998 24.3721 7.61953 24.8329 7.12493ZM11.7452 7.07226C12.2011 6.60946 12.8088 6.35411 13.4541 6.35411C14.1005 6.35411 14.7072 6.60883 15.1617 7.07099C15.6262 7.57003 16.3413 9.47483 17.019 11.8596C16.9068 12.064 16.8177 12.2797 16.7477 12.5067C14.2658 11.7966 12.2553 11.0312 11.7451 10.5427C10.8032 9.58573 10.8032 8.02926 11.7452 7.07226Z" fill="#2D2926"/>
</svg>