<svg width="44" height="48" viewBox="0 0 44 48" fill="none" xmlns="http://www.w3.org/2000/svg">
	<g>
		<path stroke-width="2" d="M22 0.933105C29.5943 0.933105 35.75 3.85817 35.75 7.46644C35.75 11.0747 29.5943 13.9998 22 13.9998C14.4057 13.9998 8.25 11.0747 8.25 7.46644C8.25 3.85817 14.4057 0.933105 22 0.933105Z" stroke="#2D2926" stroke-linecap="round" stroke-linejoin="round" />
		<path d="M35.75 14C35.75 17.6083 29.5943 20.5333 22 20.5333C14.4057 20.5333 8.25 17.6083 8.25 14" stroke="#2D2926" stroke-linecap="round" stroke-linejoin="round" />
		<path stroke-width="2" d="M35.75 7.46631V37.333C35.75 40.3995 31.1922 44.7995 22 44.7995C12.8078 44.7995 8.25 40.3995 8.25 37.333V7.46631" stroke="#2D2926" stroke-linecap="round" stroke-linejoin="round" />
		<path fill-rule="evenodd" clip-rule="evenodd" d="M13.4739 29.8872C14.018 30.1248 14.2878 30.2318 14.8363 30.4278C14.8379 30.4446 14.8379 30.4615 14.8363 30.4783C14.8345 30.4951 14.8345 30.512 14.8363 30.5288C14.7921 30.6501 14.7189 30.7584 14.6233 30.8437C14.2003 31.209 13.3805 30.8793 12.9094 30.1501C12.5316 29.5293 12.4251 28.8134 12.6497 28.3679C12.6811 28.2855 12.7301 28.2113 12.7932 28.1507C12.8563 28.09 12.9318 28.0445 13.0144 28.0174C13.5191 27.8228 14.2703 28.2476 14.6583 28.9619C14.6786 28.9917 14.6948 29.0242 14.7064 29.0585C15.0361 29.1788 15.2009 29.2352 15.535 29.3392C15.535 29.3392 15.5 29.2233 15.4883 29.1906C15.3626 28.874 15.1905 28.5785 14.9778 28.3144C14.6154 27.8604 14.1405 27.5133 13.6022 27.3089C12.8729 27.0371 12.2355 27.199 11.9364 27.7782C11.4988 28.6159 11.9364 30.104 12.9094 31.0456C13.2418 31.3883 13.6668 31.6225 14.1303 31.7184C14.3448 31.7706 14.5692 31.7618 14.7791 31.6929C14.9891 31.624 15.1763 31.4977 15.3205 31.3278C15.5369 31.0704 15.6632 30.747 15.6794 30.4085C15.6911 30.2954 15.6911 30.1814 15.6794 30.0684C14.9268 29.8464 14.1899 29.5725 13.4739 29.2486V29.8872ZM20.0145 33.0061C19.6484 32.9794 19.4675 32.963 19.1145 32.9229C18.6565 32.1239 18.4362 31.7199 18.0074 30.8986C18.2003 30.9313 18.3953 30.9487 18.5909 30.9506C18.7394 30.9443 18.8806 30.883 18.988 30.7783C19.0954 30.6736 19.1617 30.5326 19.1743 30.3818C19.188 30.2304 19.1592 30.0782 19.0913 29.9428C19.0234 29.8074 18.9192 29.6944 18.7907 29.6169C18.6414 29.5353 18.4788 29.482 18.3108 29.4595C18.0847 29.4238 17.9753 29.406 17.755 29.3659V32.718C17.4429 32.66 17.2897 32.6288 16.9863 32.5605V28.5075C16.9863 28.5075 18.0074 28.7198 18.5617 28.8208C18.7718 28.8647 18.977 28.9299 19.1743 29.0154C19.3403 29.0823 19.4902 29.1847 19.614 29.3156C19.7378 29.4465 19.8326 29.6029 19.892 29.7743C19.9704 29.9613 20.006 30.164 19.9958 30.3671C19.9857 30.5702 19.9303 30.7682 19.8336 30.9461C19.7595 31.0677 19.6615 31.1725 19.5458 31.2537C19.4301 31.335 19.2992 31.3911 19.1612 31.4184L19.0358 31.4437C19.4238 32.0808 19.6192 32.3779 20.0145 32.9987V33.0061ZM21.5271 29.0124C21.8816 29.0124 22.0596 29.0124 22.4126 29.0124V33.0655C22.0596 33.0655 21.8816 33.0655 21.5271 33.0655V29.0124ZM25.0279 32.8947C24.7114 32.9333 24.548 32.9496 24.2198 32.9779V28.9248C24.532 28.8996 24.6852 28.8832 24.9871 28.8476C25.6304 29.7001 26.8688 31.3546 26.8688 31.3546V28.5327C27.1605 28.4688 27.3064 28.4347 27.5821 28.3604V32.4105C27.3195 32.4788 27.1868 32.5115 26.9184 32.5709C26.3349 31.7749 25.0221 30.0461 25.0221 30.0461C25.0221 30.0461 25.0425 31.965 25.0221 32.8947H25.0279ZM29.0786 27.8956C29.5556 27.7277 29.7919 27.6357 30.266 27.4352C30.5002 27.3313 30.7447 27.2536 30.9953 27.2035C31.5379 27.1099 31.9551 27.3639 32.0995 27.8911C32.2332 28.3884 32.2266 28.9139 32.0806 29.4075C31.916 30.1058 31.5068 30.7189 30.9297 31.1318C30.7625 31.2599 30.5808 31.3671 30.3885 31.4511C30.1128 31.5788 29.8051 31.7036 29.4973 31.815L29.0728 31.9635L29.0786 27.8956ZM29.7963 30.9996C30.0977 30.8876 30.3882 30.7474 30.6642 30.5808C31.0109 30.3279 31.2609 29.9605 31.3717 29.5412C31.4761 29.1861 31.4801 28.8083 31.3833 28.451C31.3002 28.0857 31.0172 27.9223 30.654 27.9921C30.361 28.0717 30.0746 28.175 29.7978 28.301L29.7963 30.9996Z" fill="#2D2926" />
	</g>
</svg>