<?xml version="1.0" encoding="UTF-8"?>
<svg width="101px" height="152px" viewBox="0 0 101 152" version="1.1" xmlns="http://www.w3.org/2000/svg" xmlns:xlink="http://www.w3.org/1999/xlink">
    <title>icon-passport</title>
    <g id="Page-1" stroke="none" stroke-width="1" fill="none" fill-rule="evenodd">
        <g id="icon-passport" transform="translate(0.849881, 0.537502)" fill="#FFFFFF" fill-rule="nonzero">
            <path d="M49.2001194,42.8224974 C60.5585309,42.8193807 70.7934654,49.6784016 75.1085513,60.1852354 C79.4236371,70.6920692 76.9638204,82.7647389 68.8818388,90.7456597 C60.7998571,98.7265804 48.6971922,101.034296 38.2454853,96.5873484 C27.7937785,92.1404004 21.0640831,81.8199716 21.2101194,70.4624985 C21.4070976,55.1431909 33.8795461,42.8267037 49.2001194,42.8224974 L49.2001194,42.8224974 Z M42.1501194,45.9224985 C42.4601194,46.6024985 42.8101194,47.2724985 43.0601194,47.9224985 C44.0745162,50.2265386 43.2177214,52.925442 41.0601194,54.2224985 C40.4401194,54.6324985 39.7601194,54.9724985 39.1201194,55.3724985 C37.8601194,56.1524985 37.6601194,56.8924985 38.5301194,58.0824985 C39.1201194,58.9024985 39.8801194,59.6024985 40.5301194,60.3724985 C41.1099211,60.9877508 41.6289938,61.657522 42.0801194,62.3724985 C42.4190967,62.9318739 42.4631362,63.6216547 42.1980484,64.219597 C41.9329607,64.8175393 41.3922458,65.2480791 40.7501194,65.3724985 C40.0929183,65.5121464 39.4218598,65.575897 38.7501194,65.5624985 C37.1901194,65.5624985 35.6101194,65.4924985 34.0601194,65.6524985 C32.0601194,65.8624985 30.6701194,66.8324985 30.7401194,69.2924985 C30.9072565,73.7816396 29.0761685,78.1139939 25.7401194,81.1224985 C25.4301194,81.4124985 25.5901194,81.6324985 25.7401194,81.8724985 C28.2544006,87.1655277 32.4829804,91.4540125 37.7401194,94.0424985 C37.9201194,94.1324985 38.1201194,94.2124985 38.3701194,94.3224985 C38.3701194,94.0924985 38.3701194,93.9724985 38.3101194,93.8524985 C37.7584222,91.3644045 38.0540823,88.7632992 39.1501194,86.4624985 C40.3280284,83.6027492 42.8040432,81.4799197 45.8101194,80.7524985 C47.8972396,80.3783097 50.0410726,80.4670671 52.0901194,81.0124985 C53.3008474,81.2878777 54.5261197,81.4948719 55.7601194,81.6324985 C56.9301194,81.7424985 57.4401194,81.2024985 57.3701194,80.0424985 C57.3001194,78.8824985 57.1001194,78.0424985 56.9301194,77.0424985 C56.4101194,73.9324985 57.7201194,72.0424985 60.8401194,71.5224985 C61.3701194,71.4224985 61.9201194,71.3324985 62.4501194,71.1924985 C63.3618445,71.0543903 64.0171447,70.2428596 63.9601194,69.3224985 C64.0164607,68.2844701 63.9459396,67.2434449 63.7501194,66.2224985 C63.2778415,64.3972584 62.7002069,62.600915 62.0201194,60.8424985 C60.9185679,58.1728601 60.9801789,55.164793 62.1901194,52.5424985 C62.6601194,51.5424985 63.2501194,50.5424985 63.7901194,49.4624985 C59.1501194,45.3724985 47.1501194,43.4624985 42.1501194,45.9224985 Z M65.5701194,50.6924985 C64.7216834,51.8950346 64.0701898,53.2250269 63.6401194,54.6324985 C63.1625568,56.1583137 63.1976791,57.7985248 63.7401194,59.3024985 C64.0101194,60.0324985 64.2701194,60.7524985 64.5701194,61.4724985 C65.5982854,63.8937726 66.1124727,66.5021663 66.0801194,69.1324985 C66.1544885,71.1089663 64.7731741,72.8430471 62.8301194,73.2124985 C62.2201194,73.3524985 61.5901194,73.4324985 60.9701194,73.5624985 C59.2801194,73.9124985 58.7501194,74.6524985 58.9701194,76.3624985 C59.1401194,77.7124985 59.4201194,79.0624985 59.4701194,80.3624985 C59.5250356,81.9002325 58.443699,83.2455174 56.9301194,83.5224985 C56.3544878,83.6422471 55.7626009,83.6625404 55.1801194,83.5824985 C53.4501194,83.3124985 51.7401194,82.9324985 50.0201194,82.6524985 C47.8285314,82.1400314 45.5223991,82.5954288 43.6901194,83.9024985 C40.5043876,86.5086231 39.30308,90.8373346 40.6901194,94.7124985 C40.8218253,95.1385794 41.1738469,95.4599904 41.6101194,95.5524985 C47.8214111,97.4583252 54.5211748,96.9695777 60.3901194,94.1824985 C60.7286236,94.0766057 60.9288865,93.7283224 60.8501194,93.3824985 C60.5701194,91.2624985 60.3601194,89.1424985 60.0301194,87.0324985 C59.6701194,84.7524985 60.4601194,83.3424985 62.6301194,82.6024985 C63.0401194,82.4624985 63.4501194,82.3524985 63.8501194,82.2024985 C64.7801194,81.8524985 64.9901194,81.4024985 64.6901194,80.4424985 C64.5401194,79.9824985 64.3401194,79.5324985 64.2001194,79.0724985 C63.8503972,78.373122 63.9203283,77.5370257 64.3813701,76.9054615 C64.842412,76.2738973 65.617437,75.9525196 66.3901194,76.0724985 C66.6948965,76.078857 66.9989076,76.1055833 67.3001194,76.1524985 C68.0501194,76.2624985 68.7901194,76.4124985 69.5301194,76.5124985 C70.8507587,76.8277653 72.2382646,76.3984817 73.1501194,75.3924985 C74.4148049,73.9019078 75.10312,72.0072672 75.0903002,70.0524985 C74.8904866,62.5155144 71.405203,55.4426539 65.5501194,50.6924985 L65.5701194,50.6924985 Z M40.2201194,63.4624985 L40.3001194,63.2724985 C40.0201194,62.9324985 39.7501194,62.5924985 39.4501194,62.2724985 C38.5601194,61.2724985 37.6101194,60.2724985 36.7601194,59.2024985 C36.1791295,58.4811346 35.8932494,57.5663185 35.9601194,56.6424985 C36.0634331,55.3839462 36.8239389,54.2736078 37.9601194,53.7224985 C38.6501194,53.2924985 39.3701194,52.9124985 40.0501194,52.4624985 C41.1987575,51.8499072 41.7293994,50.491464 41.3001194,49.2624985 C41.013511,48.476352 40.6795667,47.7082801 40.3001194,46.9624985 C40.1401194,46.5824985 39.9201194,46.5524985 39.5401194,46.7024985 C28.363547,51.2014123 21.7418469,62.7893876 23.5401194,74.7024985 C23.7501194,76.2324985 24.2001194,77.7024985 24.5401194,79.4024985 C25.8378774,78.1263757 26.8828682,76.6165675 27.6201194,74.9524985 C28.3492749,73.0702806 28.6894536,71.0598246 28.6201194,69.0424985 C28.4651855,66.4354415 30.3428137,64.1483074 32.9301194,63.7924985 C34.1929306,63.5867427 35.4706701,63.4863967 36.7501194,63.4924985 C37.9601194,63.4624985 39.0901194,63.4624985 40.2201194,63.4624985 Z M62.8401194,92.7824985 C67.4601194,90.6624985 74.4501194,81.1124985 74.1501194,77.3424985 C72.7901194,78.2824985 72.3001194,78.5724985 71.1501194,78.6124985 C70.0573178,78.6140047 68.9653926,78.5505595 67.8801194,78.4224985 C67.2901194,78.4224985 66.7001194,78.2624985 66.0101194,78.1724985 C66.2301194,78.7924985 66.4101194,79.2724985 66.5701194,79.7424985 C66.9847953,80.6291832 66.9736232,81.6563506 66.5397594,82.5338061 C66.1058956,83.4112616 65.2964547,84.0437195 64.3401194,84.2524985 C63.8201194,84.4224985 63.2901194,84.5724985 62.7901194,84.7924985 C62.1548838,84.9984078 61.7967925,85.6703815 61.9801194,86.3124985 C62.1901194,87.6624985 62.4101194,89.0024985 62.5901194,90.3124985 C62.6901194,91.1524985 62.7501194,91.9524985 62.8401194,92.7824985 Z" id="Shape" stroke="#FFFFFF" stroke-width="0.5"></path>
            <path d="M95.2557564,14.6823532 L4.86011935,14.6823532 C3.57535182,14.674782 2.33243176,15.1852719 1.41766229,16.1000414 C0.502892825,17.0148109 -0.00759713676,18.2577309 -7.10542736e-15,19.5514062 L-7.10542736e-15,145.802498 C-7.10542736e-15,147.091434 0.51214151,148.327599 1.4235804,149.239037 C2.33501018,150.150467 3.57117144,150.662535 4.86011935,150.662535 L95.2601194,150.662535 C96.5471303,150.666329 97.7869985,150.155991 98.7015482,149.244155 C99.6161029,148.332314 100.130119,147.09396 100.130119,145.802498 L100.130119,19.5424985 C100.130119,18.2510369 99.6161029,17.012683 98.7015482,16.1008421 C97.7870224,15.18903 96.5471874,14.6786882 95.2557564,14.6823532 Z M4.85121162,17.6823792 L95.2644823,17.6823792 C95.7588073,17.680994 96.233362,17.8763305 96.5833823,18.2253121 C96.933396,18.5742873 97.1301194,19.0482276 97.1301194,19.5424985 L97.1301194,145.802498 C97.1301194,146.296769 96.933396,146.77071 96.5833823,147.119685 C96.2333653,147.468663 95.7588355,147.663983 95.2645586,147.662528 L4.86011935,147.662528 C4.3668294,147.662528 3.8937274,147.466544 3.54490074,147.117717 C3.19604667,146.768863 3.00002594,146.29575 3.00002594,145.802498 L3.00002594,19.5424985 C2.99711148,19.0417068 3.19120255,18.5691418 3.53898263,18.2213617 C3.88676272,17.8735816 4.35932772,17.6794906 4.85121162,17.6823792 Z" id="Path"></path>
            <path d="M88.2756466,0.0542415007 C89.3603569,-0.132484642 90.4722465,0.168073987 91.3151576,0.87586197 C92.1018747,1.53646409 92.5797226,2.48920138 92.6429544,3.51227309 L92.6501194,3.73249845 L92.6501194,16.1824985 L89.6501194,16.1824985 L89.6501278,3.73754112 C89.6493957,3.51976375 89.5527719,3.31336563 89.3859927,3.17332202 C89.24701,3.05661901 89.0710688,2.99587072 88.894183,2.99987902 L88.7882262,3.01012521 L4.51822622,17.7301252 L4.00201248,14.7748717 L88.2756466,0.0542415007 Z" id="Path"></path>
            <path d="M33.9001194,127.632498 C32.8918867,127.931486 31.80247,127.601122 31.1301194,126.792498 C30.440324,125.962967 29.3447542,125.588531 28.2915353,125.822345 C27.2383164,126.05616 26.404104,126.859008 26.1301194,127.902498 C25.8750808,128.74401 25.7934337,129.62852 25.8901194,130.502498 C26.0310861,131.894989 27.0739429,133.027467 28.4501194,133.282498 C29.9201194,133.512498 30.8501194,132.992498 31.7601194,131.282498 L28.4701194,131.042498 L28.3501194,129.132498 C30.1601194,129.252498 31.9201194,129.332498 33.6601194,129.542498 C34.0488498,129.732603 34.3103607,130.111604 34.3501194,130.542498 C34.184716,131.689226 33.775532,132.787203 33.1501194,133.762498 C31.6101194,135.572498 29.4501194,135.692498 27.3101194,135.012498 C25.1701194,134.332498 24.1901194,132.552498 23.8801194,130.412498 C23.8101614,129.824572 23.8101614,129.230425 23.8801194,128.642498 C24.2601194,124.222498 28.3301194,122.222498 32.1001194,124.592498 C33.1960776,125.215626 33.8807302,126.371928 33.9001194,127.632498 L33.9001194,127.632498 Z" id="Path"></path>
            <path d="M61.6201194,131.092498 L61.6201194,124.712498 L63.5101194,124.712498 L63.5101194,135.462498 C62.5183401,135.919731 61.3431499,135.496841 60.8701194,134.512498 C59.6801194,132.742498 58.4301194,131.002498 57.2101194,129.252498 L56.8701194,129.362498 L56.8701194,135.772498 L54.6901194,135.772498 L54.6901194,128.772498 C54.6901194,127.772498 54.6901194,126.832498 54.6901194,125.862498 C54.6901194,124.612498 55.4501194,124.152498 56.5501194,124.862498 C57.01491,125.218218 57.4113261,125.655293 57.7201194,126.152498 C58.9001194,127.832498 60.0601194,129.532498 61.2301194,131.222498 L61.6201194,131.092498 Z" id="Path"></path>
            <path d="M67.2601194,135.462498 C67.2601194,132.512498 67.2601194,129.692498 67.2601194,126.872498 C67.2601194,126.412498 67.2601194,125.952498 67.2601194,125.482498 C67.2151546,125.138243 67.3253992,124.791798 67.5610443,124.536838 C67.7966894,124.281878 68.1333949,124.144738 68.4801194,124.162498 C69.7448149,124.062564 71.0154238,124.062564 72.2801194,124.162498 C73.8050603,124.341976 75.0470337,125.471408 75.3701194,126.972498 C76.0334449,129.149742 75.6651105,131.510765 74.3701194,133.382498 C73.64895,134.512503 72.4285067,135.226908 71.0901194,135.302498 C69.9101194,135.462498 68.6901194,135.462498 67.2601194,135.462498 Z M69.3901194,132.972498 C71.2001194,133.302498 72.5001194,132.832498 73.1701194,131.692498 C73.8401194,130.552498 73.9701194,127.692498 73.1701194,126.842498 C72.0901194,125.662498 70.7201194,126.152498 69.3801194,126.202498 L69.3901194,132.972498 Z" id="Shape"></path>
            <path d="M39.7101194,126.852498 L39.7101194,135.772498 L37.7101194,135.572498 L37.7101194,124.712498 C39.5101194,124.712498 41.3101194,124.592498 43.0901194,124.712498 C44.3561483,124.862112 45.3731763,125.826254 45.5901194,127.082498 C46.0225934,128.445202 45.6335718,129.935154 44.5901194,130.912498 C44.2290276,131.26679 43.8484352,131.600643 43.4501194,131.912498 L45.5101194,135.672498 C43.8301194,136.132498 43.1901194,135.842498 42.5101194,134.412498 C41.9401194,133.242498 41.3501194,132.082498 40.7401194,130.862498 C41.8201194,130.062498 44.0301194,130.142498 43.3401194,127.862498 C42.9601194,126.862498 41.6301194,126.462498 39.7101194,126.852498 Z" id="Path"></path>
            <polygon id="Path" points="48.7501194 124.842498 50.6401194 124.842498 50.6401194 135.762498 48.7501194 135.762498"></polygon>
        </g>
    </g>
</svg>