<svg width="14" height="14" viewBox="0 0 14 14" fill="none" xmlns="http://www.w3.org/2000/svg">
<path d="M0.374247 0.374247C-0.124749 0.873243 -0.124749 1.68227 0.374247 2.18127L5.19298 7L0.374247 11.8187C-0.124749 12.3177 -0.124749 13.1268 0.374247 13.6258C0.873243 14.1247 1.68227 14.1247 2.18127 13.6258L7 8.80702L11.8187 13.6258C12.3177 14.1247 13.1268 14.1247 13.6258 13.6258C14.1247 13.1268 14.1247 12.3177 13.6258 11.8187L8.80702 7L13.6258 2.18127C14.1247 1.68228 14.1247 0.873243 13.6258 0.374247C13.1268 -0.124749 12.3177 -0.124748 11.8187 0.374247L7 5.19298L2.18127 0.374247C1.68227 -0.124749 0.873243 -0.124749 0.374247 0.374247Z" fill="#E2255E"/>
</svg>
