<svg width="16" height="18" viewBox="0 0 16 18" fill="none" xmlns="http://www.w3.org/2000/svg">
    <g clip-path="url(#clip0_283_2870)">
        <path d="M10.5742 9.092L15.9529 12.9282V5.09375L10.5742 9.092Z" fill="white"/>
        <path d="M0 5.09375V12.9282L5.37868 9.092L0 5.09375Z" fill="white"/>
        <path d="M14.9587 2.8125H0.998494C0.500912 2.8125 0.106037 3.231 0.03125 3.76988L7.97861 9.67725L15.926 3.76988C15.8512 3.231 15.4563 2.8125 14.9587 2.8125Z" fill="white"/>
        <path d="M9.66181 9.77163L8.25083 10.8201C8.16707 10.882 8.07234 10.9124 7.97661 10.9124C7.88089 10.9124 7.78616 10.882 7.70239 10.8201L6.29141 9.77051L0.03125 14.2379C0.108031 14.7723 0.500912 15.1874 0.9965 15.1874H14.9567C15.4523 15.1874 15.8452 14.7723 15.922 14.2379L9.66181 9.77163Z" fill="white"/>
    </g>
    <defs>
        <clipPath id="clip0_283_2870">
            <rect width="15.9545" height="18" fill="white"/>
        </clipPath>
    </defs>
</svg>