<svg width="24" height="24" viewBox="0 0 24 24" fill="none" xmlns="http://www.w3.org/2000/svg">
<circle cx="12" cy="12" r="12" fill="#E2255E"/>
<path fill-rule="evenodd" clip-rule="evenodd" d="M7.19102 7.69102C7.44571 7.43633 7.85864 7.43633 8.11333 7.69102L12 11.5777L15.8867 7.69102C16.1414 7.43633 16.5543 7.43633 16.809 7.69102C17.0637 7.94571 17.0637 8.35864 16.809 8.61333L12.9223 12.5L16.809 16.3867C17.0637 16.6414 17.0637 17.0543 16.809 17.309C16.5543 17.5637 16.1414 17.5637 15.8867 17.309L12 13.4223L8.11333 17.309C7.85864 17.5637 7.44571 17.5637 7.19102 17.309C6.93633 17.0543 6.93633 16.6414 7.19102 16.3867L11.0777 12.5L7.19102 8.61333C6.93633 8.35864 6.93633 7.94571 7.19102 7.69102Z" fill="white"/>
</svg>
