<svg width="24" height="24" viewBox="0 0 24 24" fill="none" xmlns="http://www.w3.org/2000/svg">
<path d="M2.25 9.82186C2.25 8.83742 2.73298 7.91563 3.54237 7.35528L10.2924 2.6822C11.3197 1.97097 12.6803 1.97097 13.7076 2.68221L20.4576 7.35528C21.267 7.91563 21.75 8.83742 21.75 9.82186V18.75C21.75 20.4069 20.4069 21.75 18.75 21.75H5.25C3.59315 21.75 2.25 20.4069 2.25 18.75V9.82186Z" stroke="#2D2926" stroke-width="1.5"/>
<path fill-rule="evenodd" clip-rule="evenodd" d="M2.25 9.82188C2.25 8.83745 2.73298 7.91565 3.54237 7.3553L10.2924 2.68223C11.3197 1.971 12.6803 1.971 13.7076 2.68223L20.4576 7.35531C21.267 7.91566 21.75 8.83745 21.75 9.82188V18.75C21.75 20.4069 20.4069 21.75 18.75 21.75H15.75V21V18V17.25C15.75 15.5931 14.4069 14.25 12.75 14.25H11.25C9.59315 14.25 8.25 15.5931 8.25 17.25V18V21V21.75H5.25C3.59315 21.75 2.25 20.4069 2.25 18.75V9.82188Z" fill="#2D2926"/>
</svg>
