<svg width="14" height="19" viewBox="0 0 14 19" fill="none" xmlns="http://www.w3.org/2000/svg">
<path d="M12.5373 17.4692L12.5385 17.4685C12.9212 17.2441 13.125 16.9217 13.125 16.5084C13.125 16.2092 13.0221 15.9553 12.8144 15.7567C12.6091 15.5446 12.3569 15.4363 12.0646 15.4363C12.0175 15.4363 11.959 15.4477 11.8964 15.464C11.8311 15.4809 11.7517 15.5057 11.6588 15.5379L11.6587 15.5378L11.6564 15.5387C11.1983 15.7074 10.7338 15.7914 10.2624 15.7914C9.92228 15.7914 9.58994 15.7531 9.26512 15.6765C8.95177 15.5991 8.58402 15.4824 8.16131 15.3257L8.16136 15.3256L8.15566 15.3237C7.60754 15.1499 7.17136 15.0228 6.84818 14.9429C6.53168 14.8609 6.1712 14.8207 5.76806 14.8207V14.8206L5.76288 14.8208L5.42233 14.8349C5.99446 13.8293 6.28089 12.7449 6.28089 11.5836C6.28089 11.4307 6.26955 11.2272 6.24733 10.9746H9.55513C9.82726 10.9746 10.0581 10.8854 10.2362 10.7017C10.4297 10.5181 10.5242 10.2794 10.5242 9.99721C10.5242 9.72744 10.4276 9.49133 10.2383 9.29488C10.0489 9.09835 9.81933 8.99617 9.55513 8.99617H5.83996L5.70589 8.5191L5.70592 8.5191L5.70514 8.51654C5.52325 7.91877 5.38741 7.40937 5.29714 6.98776C5.20753 6.56929 5.16302 6.16769 5.16302 5.78273C5.16302 5.05833 5.4159 4.45166 5.92331 3.95485C6.43591 3.46767 7.31564 3.20857 8.59696 3.20857C9.34095 3.20857 10.1561 3.35528 11.0434 3.65178C11.2299 3.71626 11.3899 3.75313 11.5171 3.75313C11.8233 3.75313 12.0844 3.64571 12.2915 3.43074C12.4984 3.21606 12.6003 2.94733 12.6003 2.6337C12.6003 2.39012 12.537 2.1742 12.4055 1.99224C12.2748 1.81142 12.083 1.67268 11.8395 1.57149C10.76 1.10744 9.64842 0.875 8.5057 0.875C6.81065 0.875 5.43346 1.31521 4.38662 2.20708L4.38662 2.20707L4.38591 2.20768C3.3506 3.10309 2.83698 4.33155 2.83698 5.87744C2.83698 6.42233 2.89102 6.92916 2.99992 7.3974L2.99992 7.3974L3.00015 7.39835C3.09945 7.8106 3.25074 8.34346 3.45355 8.99617H1.82129C1.5571 8.99617 1.32749 9.09835 1.13812 9.29488L1.13802 9.29479L1.13411 9.29925C0.961495 9.49631 0.875 9.731 0.875 9.99721C0.875 10.2634 0.961495 10.4981 1.13411 10.6952L1.13368 10.6955L1.14236 10.7037C1.33264 10.8833 1.56097 10.9746 1.82129 10.9746H3.92657C3.96061 11.2187 3.97766 11.4691 3.97766 11.7256C3.97766 12.5894 3.7772 13.4227 3.3749 14.2268C2.97013 15.0359 2.48431 15.718 1.91832 16.275C1.67879 16.4893 1.55941 16.7679 1.55941 17.1003C1.55941 17.3567 1.65784 17.5843 1.84535 17.7789L1.84524 17.779L1.84958 17.7831C2.03987 17.9627 2.2682 18.054 2.52852 18.054C2.74149 18.054 2.9417 17.9799 3.12686 17.8406C3.86702 17.3187 4.66286 17.0595 5.51711 17.0595C5.94979 17.0595 6.31744 17.1061 6.62226 17.1965L6.62375 17.1969C6.95273 17.29 7.32845 17.4225 7.75129 17.5949L7.75127 17.5949L7.75402 17.5959C8.2115 17.77 8.59575 17.8979 8.90572 17.9784C9.23885 18.0769 9.62322 18.125 10.057 18.125C10.9455 18.125 11.773 17.9063 12.5373 17.4692Z" fill="#E2255E" stroke="#E2255E" stroke-width="0.25"/>
</svg>
