<svg width="80" height="80" viewBox="0 0 80 80" fill="none" xmlns="http://www.w3.org/2000/svg">
<path d="M68.3333 31.6667L78.3333 38.3333V73.3333C78.3333 76.0933 76.0933 78.3333 73.3333 78.3333H6.66667C3.90667 78.3333 1.66667 76.0933 1.66667 73.3333V38.3333L11.6667 31.6667" fill="white"/>
<path d="M68.3333 31.6667L78.3333 38.3333V73.3333C78.3333 76.0933 76.0933 78.3333 73.3333 78.3333H6.66667C3.90667 78.3333 1.66667 76.0933 1.66667 73.3333V38.3333L11.6667 31.6667" stroke="#2D2926" stroke-linecap="round" stroke-linejoin="round"/>
<path d="M11.6799 68.3333L28.3465 55H51.6799L68.3465 68.3333" stroke="#2D2926" stroke-linecap="round" stroke-linejoin="round"/>
<path d="M78.3465 38.3333L58.3465 51.6667" stroke="#2D2926" stroke-linecap="round" stroke-linejoin="round"/>
<path d="M1.67987 38.3333L21.6799 51.6667" stroke="#2D2926" stroke-linecap="round" stroke-linejoin="round"/>
<path d="M68.3333 45V4.83756C68.3333 3.08723 66.6409 1.66667 64.5556 1.66667H15.4444C13.3591 1.66667 11.6667 3.08723 11.6667 4.83756V45" fill="white"/>
<path d="M68.3333 45V4.83756C68.3333 3.08723 66.6409 1.66667 64.5556 1.66667H15.4444C13.3591 1.66667 11.6667 3.08723 11.6667 4.83756V45" stroke="#2D2926" stroke-linecap="round" stroke-linejoin="round"/>
<path d="M55.7032 9.96829C56.2232 9.96829 57.7253 9.96829 58.6209 9.96829C59.2275 9.96829 59.8342 10.0244 60.4119 10.1648C61.7407 10.5019 62.7517 11.5129 63.0984 12.8048C63.4162 13.844 63.4162 14.9955 63.0696 16.0346C62.6939 17.3265 61.6252 18.2815 60.2674 18.5343C59.8342 18.6466 59.4008 18.7027 58.9386 18.7027C57.9276 18.7308 56.7143 18.7027 55.7034 18.7027V9.96829H55.7032ZM57.4653 17.2142C58.1875 17.2423 58.8808 17.1861 59.6029 17.1019C60.4118 16.9334 61.0763 16.3436 61.3362 15.5853C61.5962 14.827 61.5962 14.0125 61.3651 13.2542C61.1628 12.3836 60.4695 11.7375 59.5741 11.541C58.8808 11.4287 58.1875 11.4005 57.4653 11.4287V17.2142Z" fill="#2D2926"/>
<path d="M46.3145 18.6747H44.639V9.96829H46.2279C47.5855 11.9622 50.4165 16.0346 50.4165 16.0346V9.96829H52.0919V18.6747H50.532C49.1742 16.6806 46.3145 12.552 46.3145 12.552C46.3145 12.552 46.3434 16.6806 46.3145 18.6747Z" fill="#2D2926"/>
<path d="M41.0577 9.96829H39.3245V18.6747H41.0577V9.96829Z" fill="#2D2926"/>
<path d="M36.3246 18.6747H34.4758L32.0781 14.6584C32.5115 14.6584 32.9447 14.6303 33.3781 14.5742C34.0714 14.4338 34.5624 13.8721 34.6202 13.1981C34.7069 12.5801 34.3891 11.9622 33.8113 11.6533C33.4936 11.5129 33.147 11.4568 32.7714 11.4568C32.4247 11.4568 31.8759 11.4568 31.5293 11.4568V18.6747H29.7671V9.96829C29.7671 9.96829 32.1358 9.96829 33.3203 10.0244C33.7535 10.0525 34.1869 10.1367 34.6202 10.2772C35.3424 10.53 35.8912 11.0635 36.0935 11.7657C36.4112 12.5801 36.3823 13.507 35.9779 14.2933C35.6891 14.827 35.1979 15.2482 34.5913 15.4448C34.5046 15.4729 34.3313 15.5292 34.3313 15.5292L36.3246 18.6747Z" fill="#2D2926"/>
<path d="M24.5922 15.4455H21.2413V14.0693C23.0323 14.0693 24.8233 14.0693 26.6433 14.0693C26.6721 14.3221 26.6721 14.5749 26.6431 14.7996C26.5853 15.6141 26.2677 16.3723 25.7765 17.0183C25.0544 17.9733 24.0144 18.591 22.859 18.7877C21.8478 18.9843 20.7791 18.9001 19.8547 18.4787C17.4859 17.4396 16.446 14.7715 17.4859 12.4966C18.2082 10.9238 19.7681 9.8846 21.5591 9.80039C22.7724 9.71618 23.9856 10.0813 24.9388 10.8114C25.4588 11.2328 25.8922 11.7382 26.1811 12.328C26.2099 12.3843 26.2965 12.6089 26.2965 12.6089H24.2744C24.2455 12.5527 24.2166 12.4966 24.1588 12.4404C23.2056 11.2047 21.3568 10.9519 20.0858 11.8787C19.6814 12.1596 19.3635 12.5527 19.1902 13.002C18.6414 14.2098 18.9013 15.6141 19.8257 16.569C20.9812 17.6642 23.0033 17.6363 24.0433 16.5127C24.2745 16.26 24.4477 15.9792 24.5634 15.6703C24.5632 15.5859 24.5922 15.5298 24.5922 15.4455Z" fill="#2D2926"/>
<path d="M21.6799 26.6667H36.6799" stroke="#2D2926" stroke-linecap="round" stroke-linejoin="round"/>
<path d="M21.6799 33.3333H36.6799" stroke="#2D2926" stroke-linecap="round" stroke-linejoin="round"/>
<path d="M21.6799 40H30.0132" stroke="#2D2926" stroke-linecap="round" stroke-linejoin="round"/>
</svg>
