<svg width="16" height="17" viewBox="0 0 16 17" fill="none" xmlns="http://www.w3.org/2000/svg">
    <path d="M14.673 12.3984L12.5658 10.0408C11.8132 9.19883 10.5338 9.53566 10.2328 10.6302C10.007 11.3881 9.25445 11.8091 8.57712 11.6406C7.07196 11.2196 5.03998 9.03043 4.66369 7.26223C4.43791 6.5044 4.88946 5.6624 5.56679 5.40984C6.54515 5.07304 6.84618 3.64164 6.0936 2.79964L3.98636 0.442049C3.3843 -0.14735 2.4812 -0.14735 1.95439 0.442049L0.524481 2.04185C-0.905428 3.72584 0.674997 8.18843 4.21214 12.1458C7.74928 16.1032 11.738 17.9556 13.2431 16.2716L14.673 14.6718C15.1999 13.9982 15.1999 12.9878 14.673 12.3984Z" fill="white"/>
</svg>