<?xml version="1.0" encoding="utf-8"?>
<!-- Generator: Adobe Illustrator 22.1.0, SVG Export Plug-In . SVG Version: 6.00 Build 0)  -->
<svg version="1.1" id="Layer_1" xmlns="http://www.w3.org/2000/svg" xmlns:xlink="http://www.w3.org/1999/xlink" x="0px" y="0px"
	 viewBox="0 0 566.9 566.9" style="enable-background:new 0 0 566.9 566.9;" xml:space="preserve">
<g>
	<g>
		<path d="M525.6,213.9c-0.2,0.8-0.4,1.7-0.7,2.5c-1,3-3.2,5-5.9,6.4c-3.8,2-8,2.9-12.2,3.3c-5,0.5-10,0.8-14.9,1.2
			c-10.5,0.9-20.4,3.8-29.8,8.4c-14.9,7.3-27.3,17.6-37.7,30.5c-4.1,5.2-8.8,9.9-13.4,14.7c-8.8,9.2-17.5,18.4-26.5,27.3
			c-24.8,24.6-51,47.6-79.5,67.9c-17.4,12.4-35.5,23.7-54.6,33.2c-17.5,8.7-35.6,15.8-54.6,20.4c-15.9,3.9-32,5.8-48.4,5.1
			c-17.7-0.7-34.7-4.5-50.6-12.4c-13.5-6.7-25.3-15.5-34.4-27.6c-6.5-8.7-10.7-18.6-13.8-29c-3.5-11.8-5.4-23.9-5.9-36.2
			c-0.9-20.9,1.8-41.3,8.1-61.2c7.8-24.6,20.6-46.4,38.2-65.2c14.9-16,32.4-28.7,51.7-38.8c20.2-10.6,41.6-17.7,63.8-22.8
			c14.1-3.3,28.3-5.7,42.8-7.1c8.9-0.8,17.8-1.5,26.8-1.7c9.5-0.3,19-0.3,28.4,0.1c49,2.1,96.1,13.1,141.7,30.9
			c22.8,8.9,44.7,19.5,65.9,31.8c3.8,2.2,7.4,4.7,10.6,7.8c2.6,2.6,4.6,5.5,4.9,9.3c0,0.1,0.1,0.1,0.2,0.2
			C525.6,213.2,525.6,213.6,525.6,213.9z M512.6,212.6c-0.2-0.3-0.4-0.5-0.5-0.7c-2.3-1.8-4.5-3.7-7-5.2
			c-10.5-6.2-21.2-11.9-32.2-17.2c-28.3-13.6-57.5-24.4-87.9-32.1c-22.5-5.7-45.3-9.7-68.4-11.6c-14-1.2-28.1-1.7-42.2-1
			c-9.6,0.5-19.2,1.1-28.7,2c-12.3,1.2-24.4,3.4-36.5,6.1c-19.3,4.4-38,10.2-55.9,18.7c-20.5,9.8-38.9,22.4-54.6,38.9
			c-11.8,12.4-21.4,26.3-28.6,41.7c-10,21.2-15.1,43.4-15.6,66.8c-0.3,13.9,1.2,27.5,4.8,40.9c2.6,9.3,6,18.3,11.6,26.3
			c6.5,9.3,15.1,16.3,24.7,22c16.1,9.5,33.7,13.8,52.2,14.6c15,0.6,29.7-1.2,44.2-4.6c18.4-4.4,35.9-11.3,52.9-19.7
			c19.1-9.5,37.1-20.8,54.5-33.3c28.1-20.2,53.9-43,78.4-67.4c8.4-8.4,16.6-17.1,24.9-25.7c4.2-4.4,8.4-8.7,12.2-13.4
			c8.1-10.1,17.4-18.8,28.1-26c12.1-8.1,25.2-13.7,39.6-16.4c6.4-1.2,12.8-1.4,19.2-1.9C505.4,214.3,509,213.9,512.6,212.6z"/>
		<path d="M215.3,235.9c1.8-0.8,3.4-1.5,5-2.2c17-7.3,34.5-12.4,52.6-16c15.8-3.1,31.8-4.9,47.9-5.5c8.1-0.3,16.3-0.2,24.5-0.2
			c3.5,0,6.2,2.7,6.1,6c0,3.5-2.6,5.9-6.3,6c-8.2,0.1-16.4-0.1-24.6,0.3c-33.9,1.5-66.7,7.8-98,21.5c-21.9,9.6-41.7,22.4-59.3,38.7
			c-2.9,2.7-5.7,5.5-8.7,8.4c1.4,1.9,2.7,3.7,4.2,5.4c8.1,9.2,18.3,14.4,30.4,15.8c10.7,1.2,21-0.6,31.2-3.8
			c1.2-0.4,2.5-0.8,3.8-0.9c2.9-0.1,5.3,2.1,5.8,4.9c0.5,3-1,5.7-3.9,6.7c-6.8,2.3-13.7,4-20.8,4.8c-8,1-16,0.8-24-1
			c-14-3.2-25.4-10.5-34.2-21.9c-0.2-0.3-0.4-0.5-0.8-1c-3.2,4.1-6.4,7.9-9.3,12c-11.2,15.2-20.4,31.6-26.9,49.4
			c-0.5,1.4-0.9,2.8-1.4,4.2c-1,3.3-4.2,5.1-7.4,4.2c-3.3-0.9-5.2-4.2-4.1-7.5c1.8-5.4,3.7-10.7,6-15.9
			c10.2-23.2,24.1-43.9,41.5-62.2c16.9-17.8,36.2-32.4,58-43.9c0.7-0.4,0.9-0.8,0.8-1.6c-1.1-10.3,1.3-19.9,5.6-29.2
			c4.7-10.3,11.3-19.3,19.1-27.4c4.7-4.9,9.7-9.4,14.7-13.9c3.3-3,7.9-2.1,9.7,1.6c1.2,2.5,0.5,5.3-1.6,7.3
			c-4.2,3.8-8.4,7.5-12.4,11.5c-8,8.2-14.9,17.2-19.5,27.8c-2.2,5.1-3.6,10.3-3.9,15.9C215.3,234.7,215.3,235.2,215.3,235.9z"/>
	</g>
</g>
</svg>
