<?xml version="1.0" encoding="UTF-8" standalone="no"?><!DOCTYPE svg PUBLIC "-//W3C//DTD SVG 1.1//EN" "http://www.w3.org/Graphics/SVG/1.1/DTD/svg11.dtd"><svg width="100%" height="100%" viewBox="0 0 300 60" version="1.1" xmlns="http://www.w3.org/2000/svg" xmlns:xlink="http://www.w3.org/1999/xlink" xml:space="preserve" xmlns:serif="http://www.serif.com/" style="fill-rule:evenodd;clip-rule:evenodd;stroke-linejoin:round;stroke-miterlimit:1.41421;"><path d="M250.687,1.115c3.375,0 13.125,0 18.938,0c3.937,0 7.875,0.371 11.625,1.3c8.625,2.229 15.187,8.916 17.437,17.461c2.063,6.873 2.063,14.489 -0.187,21.362c-2.438,8.545 -9.375,14.861 -18.188,16.533c-2.812,0.743 -5.625,1.114 -8.625,1.114c-6.562,0.186 -14.437,0 -20.999,0l0,-57.77Zm11.437,47.925c4.688,0.186 9.188,-0.186 13.875,-0.743c5.25,-1.114 9.563,-5.015 11.25,-10.031c1.688,-5.015 1.688,-10.402 0.188,-15.418c-1.313,-5.758 -5.813,-10.031 -11.625,-11.331c-4.5,-0.743 -9,-0.929 -13.688,-0.743l0,38.266Z" style="fill-rule:nonzero;"/><path d="M189.75,58.7l-10.875,0l0,-57.585l10.313,0c8.812,13.188 27.187,40.123 27.187,40.123l0,-40.123l10.875,0l0,57.585l-10.125,0c-8.813,-13.189 -27.375,-40.496 -27.375,-40.496c0,0 0.188,27.307 0,40.496Z" style="fill-rule:nonzero;"/><rect x="144.375" y="1.115" width="11.25" height="57.585" style="fill-rule:nonzero;"/><path d="M124.875,58.7l-12,0l-15.563,-26.564c2.813,0 5.625,-0.186 8.438,-0.557c4.5,-0.929 7.687,-4.644 8.062,-9.102c0.563,-4.087 -1.5,-8.174 -5.25,-10.217c-2.062,-0.929 -4.312,-1.3 -6.75,-1.3c-2.25,0 -5.812,0 -8.062,0l0,47.74l-11.438,0l0,-57.585c0,0 15.375,0 23.063,0.371c2.812,0.186 5.625,0.743 8.437,1.672c4.688,1.672 8.25,5.201 9.563,9.845c2.062,5.387 1.875,11.517 -0.75,16.718c-1.875,3.53 -5.063,6.316 -9,7.616c-0.563,0.186 -1.688,0.558 -1.688,0.558l12.938,20.805Z" style="fill-rule:nonzero;"/><path d="M48.75,37.337l-21.75,0l0,-9.102c11.625,0 23.25,0 35.063,0c0.187,1.672 0.187,3.344 -0.001,4.83c-0.375,5.387 -2.437,10.402 -5.625,14.675c-4.687,6.316 -11.437,10.402 -18.937,11.703c-6.563,1.3 -13.5,0.743 -19.5,-2.044c-15.375,-6.873 -22.125,-24.52 -15.375,-39.566c4.688,-10.403 14.813,-17.276 26.438,-17.833c7.875,-0.557 15.75,1.858 21.937,6.687c3.375,2.787 6.188,6.13 8.063,10.031c0.187,0.372 0.749,1.858 0.749,1.858l-13.125,0c-0.187,-0.372 -0.375,-0.743 -0.75,-1.115c-6.187,-8.173 -18.187,-9.845 -26.437,-3.715c-2.625,1.858 -4.688,4.458 -5.813,7.43c-3.562,7.988 -1.875,17.276 4.125,23.592c7.5,7.244 20.625,7.059 27.375,-0.372c1.501,-1.672 2.625,-3.529 3.376,-5.572c-0.001,-0.558 0.187,-0.929 0.187,-1.487Z" style="fill-rule:nonzero;"/></svg>