<?xml version="1.0" encoding="UTF-8"?>
<svg width="101px" height="22px" viewBox="0 0 101 22" version="1.1" xmlns="http://www.w3.org/2000/svg" xmlns:xlink="http://www.w3.org/1999/xlink">
    <title>logo-grey</title>
    <g id="Page-1" stroke="none" stroke-width="1" fill="none" fill-rule="evenodd">
        <g id="logo-grey" transform="translate(0.003967, 0.973747)" fill="#959291">
            <path d="M83.5583668,0.397919437 C84.6833668,0.397919437 87.9333668,0.397919437 89.8710335,0.397919437 C91.1833668,0.397919437 92.4960335,0.521586104 93.7460335,0.83125277 C96.6210335,1.57425277 98.8083668,3.80325277 99.5583668,6.6515861 C100.246033,8.9425861 100.246033,11.4812528 99.4960335,13.7722528 C98.6833668,16.6205861 96.3710335,18.7259194 93.4333668,19.2832528 C92.4960335,19.5309194 91.5583668,19.6545861 90.5583668,19.6545861 C88.3710335,19.7165861 85.7460335,19.6545861 83.5587002,19.6545861 L83.5587002,0.397919437 L83.5583668,0.397919437 Z M87.3707002,16.3729194 C88.9333668,16.4349194 90.4333668,16.3109194 91.9957002,16.1252528 C93.7457002,15.7539194 95.1833668,14.4535861 95.7457002,12.7815861 C96.3083668,11.1099194 96.3083668,9.31425277 95.8083668,7.64225277 C95.3707002,5.72291944 93.8707002,4.2985861 91.9333668,3.86525277 C90.4333668,3.6175861 88.9333668,3.5555861 87.3707002,3.6175861 L87.3707002,16.3729194 Z" id="Shape"></path>
            <path d="M63.2460335,19.5929194 L59.6210335,19.5929194 L59.6210335,0.397919437 L63.0587002,0.397919437 C65.9960335,4.79391944 72.1210335,13.7722528 72.1210335,13.7722528 L72.1210335,0.397919437 L75.7460335,0.397919437 L75.7460335,19.5929194 L72.3710335,19.5929194 C69.4333668,15.1965861 63.2460335,6.09425277 63.2460335,6.09425277 C63.2460335,6.09425277 63.3087002,15.1965861 63.2460335,19.5929194 Z" id="Path"></path>
            <rect id="Rectangle" x="48.1210335" y="0.397919437" width="3.75" height="19.195"></rect>
            <path d="M41.6210335,19.5929194 L37.6210335,19.5929194 L32.4333668,10.7382528 C33.3710335,10.7382528 34.3083668,10.6762528 35.2460335,10.5525861 C36.7460335,10.2429194 37.8083668,9.0045861 37.9333668,7.5185861 C38.1210335,6.15625277 37.4333668,4.79391944 36.1833668,4.11291944 C35.4960335,3.80325277 34.7460335,3.6795861 33.9333668,3.6795861 C33.1833668,3.6795861 31.9960335,3.6795861 31.2460335,3.6795861 L31.2460335,19.5929194 L27.4333668,19.5929194 L27.4333668,0.397919437 C27.4333668,0.397919437 32.5583668,0.397919437 35.1210335,0.521586104 C36.0583668,0.583586104 36.9960335,0.76925277 37.9333668,1.07891944 C39.4960335,1.63625277 40.6833668,2.8125861 41.1210335,4.3605861 C41.8083668,6.15625277 41.7460335,8.1995861 40.8710335,9.93325277 C40.2460335,11.1099194 39.1833668,12.0385861 37.8710335,12.4719194 C37.6833668,12.5339194 37.3083668,12.6579194 37.3083668,12.6579194 L41.6210335,19.5929194 Z" id="Path"></path>
            <path d="M16.2460335,12.4719194 L8.9960335,12.4719194 L8.9960335,9.43791944 C12.8710335,9.43791944 16.7460335,9.43791944 20.6837002,9.43791944 C20.7460335,9.99525277 20.7460335,10.5525861 20.6833668,11.0479194 C20.5583668,12.8435861 19.8710335,14.5152528 18.8083668,15.9395861 C17.2460335,18.0449194 14.9960335,19.4069194 12.4960335,19.8405861 C10.3083668,20.2739194 7.9960335,20.0882528 5.9960335,19.1592528 C0.871033498,16.8682528 -1.3789665,10.9859194 0.871033498,5.9705861 C2.43370017,2.50291944 5.80870017,0.211919437 9.68370017,0.0262527705 C12.3087002,-0.159413896 14.9337002,0.645586104 16.9960335,2.25525277 C18.1210335,3.18425277 19.0587002,4.2985861 19.6837002,5.59891944 C19.7460335,5.72291944 19.9333668,6.21825277 19.9333668,6.21825277 L15.5583668,6.21825277 C15.4960335,6.09425277 15.4333668,5.9705861 15.3083668,5.8465861 C13.2460335,3.12225277 9.2460335,2.56491944 6.4960335,4.60825277 C5.6210335,5.2275861 4.93336683,6.09425277 4.55836683,7.08491944 C3.3710335,9.7475861 3.93336683,12.8435861 5.93336683,14.9489194 C8.43336683,17.3635861 12.8083668,17.3019194 15.0583668,14.8249194 C15.5587002,14.2675861 15.9333668,13.6485861 16.1837002,12.9675861 C16.1833668,12.7815861 16.2460335,12.6579194 16.2460335,12.4719194 Z" id="Path"></path>
        </g>
    </g>
</svg>