<svg width="20" height="20" viewBox="0 0 20 20" fill="none" xmlns="http://www.w3.org/2000/svg">
<path fill-rule="evenodd" clip-rule="evenodd" d="M0 10C0 4.47715 4.47715 0 10 0C15.5228 0 20 4.47715 20 10C20 15.5228 15.5228 20 10 20C4.47715 20 0 15.5228 0 10Z" fill="#2D2926"/>
<path d="M8.79459 12.1327L14.1707 6.50377C14.4939 6.16541 15.0178 6.16541 15.341 6.50377C15.6641 6.84212 15.6641 7.39071 15.341 7.72907L8.79459 14.5833L4.99237 10.6023C4.66921 10.2639 4.66921 9.71535 4.99237 9.37699C5.31553 9.03863 5.83947 9.03863 6.16263 9.37699L8.79459 12.1327Z" fill="white"/>
</svg>
