<svg width="48" height="32" viewBox="0 0 48 32" fill="none" xmlns="http://www.w3.org/2000/svg">
<g clip-path="url(#clip0)">
<path d="M20.8441 23.4587H16.9475L19.3847 8.58984H23.2811L20.8441 23.4587Z" fill="#C9C4C1"/>
<path d="M34.9694 8.95334C34.2009 8.65249 32.9818 8.32031 31.4745 8.32031C27.6265 8.32031 24.9168 10.3449 24.9002 13.2395C24.8682 15.3751 26.8403 16.5612 28.3152 17.2733C29.8227 18.0009 30.3352 18.4759 30.3352 19.1245C30.3198 20.1206 29.117 20.5797 27.9951 20.5797C26.4394 20.5797 25.6059 20.343 24.3391 19.7888L23.826 19.5512L23.2808 22.889C24.1947 23.2998 25.8784 23.6643 27.6265 23.6803C31.7151 23.6803 34.3769 21.687 34.4084 18.6024C34.424 16.9098 33.3826 15.6128 31.1376 14.553C29.7748 13.8727 28.9402 13.414 28.9402 12.7179C28.9561 12.085 29.6461 11.4369 31.1845 11.4369C32.4513 11.4051 33.382 11.7056 34.0871 12.0062L34.4395 12.1641L34.9694 8.95334Z" fill="#C9C4C1"/>
<path d="M40.1483 18.1912C40.4692 17.337 41.704 14.031 41.704 14.031C41.6878 14.0628 42.0242 13.1611 42.2166 12.6075L42.4889 13.8887C42.4889 13.8887 43.2268 17.4478 43.3871 18.1912C42.7781 18.1912 40.9179 18.1912 40.1483 18.1912ZM44.9581 8.58984H41.9441C41.0146 8.58984 40.3085 8.85853 39.9075 9.82352L34.1196 23.4585H38.2082C38.2082 23.4585 38.8813 21.6234 39.026 21.2281C39.4745 21.2281 43.4518 21.2281 44.0289 21.2281C44.1407 21.7501 44.4938 23.4585 44.4938 23.4585H48.1017L44.9581 8.58984Z" fill="#C9C4C1"/>
<path d="M13.6928 8.58984L9.87679 18.729L9.45979 16.6727C8.75429 14.2999 6.54167 11.722 4.07251 10.4402L7.56786 23.443H11.6884L17.8131 8.58984H13.6928Z" fill="#C9C4C1"/>
<path d="M6.33336 8.58984H0.0641366L0 8.89027C4.89038 10.1242 8.12919 13.0984 9.45987 16.6733L8.09701 9.83971C7.87264 8.89006 7.18312 8.62117 6.33336 8.58984Z" fill="#C9C4C1"/>
</g>
<defs>
<clipPath id="clip0">
<rect width="48" height="32" fill="white"/>
</clipPath>
</defs>
</svg>
