<svg width="56" height="40" viewBox="0 0 56 40" fill="none" xmlns="http://www.w3.org/2000/svg">
<g clip-path="url(#clip0)">
<path d="M55.1158 36.5741C55.1158 38.4677 53.6806 40.0028 51.9101 40.0028H4.08986C2.3193 40.0028 0.884186 38.4676 0.884186 36.5741V3.43142C0.884186 1.53779 2.3194 0.00280762 4.08986 0.00280762H51.9099C53.6805 0.00280762 55.1156 1.5379 55.1156 3.43142V36.5742L55.1158 36.5741Z" fill="#2D2926"/>
<path d="M9.59525 14.0279L10.4053 16.0942H8.78478L9.59525 14.0279ZM9.59536 12.2561C8.86834 12.2561 8.21526 12.7018 7.94926 13.3799L7.1389 15.4462C6.92507 15.9917 6.99398 16.6079 7.32342 17.0922C7.65286 17.5764 8.19984 17.8662 8.78489 17.8662H10.4054C10.9902 17.8662 11.5373 17.5764 11.8667 17.0923C12.1962 16.608 12.2652 15.9918 12.0514 15.4465L11.2413 13.3802C10.9753 12.702 10.3224 12.2561 9.59536 12.2561Z" fill="#202121"/>
<path d="M20.4955 23.0307L21.8212 24.5807L20.4217 26.1307H17.4022V25.0235H20.1274V23.9902H17.4022V23.0307H20.4955ZM20.4955 21.2589H17.4022C16.4256 21.2589 15.6338 22.0522 15.6338 23.0307V23.9902C15.6338 24.1698 15.6606 24.3434 15.7102 24.5069C15.6605 24.6704 15.6338 24.8439 15.6338 25.0236V26.1308C15.6338 27.1093 16.4256 27.9026 17.4022 27.9026H20.4217C20.9215 27.9026 21.3979 27.6907 21.7331 27.3193L23.1326 25.7693C23.7298 25.1078 23.7431 24.1047 23.164 23.4277L21.8383 21.8778C21.5023 21.485 21.0118 21.2589 20.4955 21.2589Z" fill="#202121"/>
<path d="M38.687 14.0279L39.4974 16.0942H37.8032L38.687 14.0279ZM38.6869 12.2561C37.9804 12.2561 37.3405 12.6777 37.0616 13.33L36.1778 15.3963C35.9436 15.9438 35.9995 16.5725 36.3269 17.0696C36.6541 17.5669 37.2088 17.8661 37.8032 17.8661H39.4974C40.0822 17.8661 40.6294 17.5763 40.9589 17.0921C41.2883 16.6078 41.3573 15.9916 41.1435 15.4461L40.3331 13.3798C40.0707 12.711 39.4313 12.2672 38.7142 12.2562C38.7051 12.2563 38.696 12.2561 38.6869 12.2561Z" fill="#202121"/>
<path d="M25.2829 22.5144V26.7206L23.3678 24.5808L25.2829 22.5144ZM25.2832 20.7422C24.8008 20.7422 24.3283 20.9403 23.987 21.3084L22.0719 23.375C21.4499 24.0462 21.4408 25.0816 22.0511 25.7637L23.9661 27.9035C24.3083 28.2856 24.7902 28.4924 25.2831 28.4924C25.4951 28.4924 25.7089 28.4542 25.9148 28.3753C26.5991 28.1129 27.0512 27.4547 27.0512 26.7205V22.5142C27.0512 21.7857 26.606 21.1313 25.9292 20.8649C25.7193 20.7825 25.5002 20.7422 25.2832 20.7422Z" fill="#202121"/>
<path d="M28.0812 23.0307C28.5232 23.0307 28.8181 23.2524 28.8918 23.6952C28.8918 24.1378 28.5971 24.3591 28.1552 24.3591H26.5348V23.0307H28.0812ZM28.0812 21.2589H26.5348C25.5582 21.2589 24.7664 22.0522 24.7664 23.0307V24.3591C24.7664 25.3376 25.5582 26.1309 26.5348 26.1309H28.1552C29.6066 26.1309 30.6602 25.1065 30.6602 23.6952C30.6602 23.5975 30.6522 23.5001 30.6362 23.4038C30.4225 22.1208 29.3957 21.2589 28.0812 21.2589Z" fill="#202121"/>
<path d="M33.458 23.1047C33.6787 23.1047 33.9 23.1047 34.0469 23.1786C34.1942 23.2526 34.3419 23.4003 34.2681 23.6953C34.2681 23.9163 34.1942 24.1379 34.0469 24.2119C33.9 24.2858 33.6787 24.2858 33.458 24.2858H31.9849V23.1048L33.458 23.1047ZM33.458 21.3329H31.9849C31.0082 21.3329 30.2165 22.1262 30.2165 23.1047V24.2857C30.2165 25.2642 31.0082 26.0575 31.9849 26.0575H33.458C33.8007 26.0575 34.3187 26.0575 34.8398 25.7956C35.5229 25.4528 35.967 24.7372 36.0291 23.8986C36.174 22.94 35.7148 22.0336 34.8389 21.594C34.3187 21.3329 33.8008 21.3329 33.458 21.3329Z" fill="#202121"/>
<path d="M28.3023 14.2494C28.5232 14.2494 28.7442 14.2494 28.8916 14.323C28.9853 14.3701 29.0788 14.4478 29.1153 14.5743L29.1159 14.5742C29.1176 14.5802 29.1174 14.5854 29.1187 14.5913C29.1237 14.6128 29.128 14.6348 29.1297 14.6586C29.171 14.9187 29.0944 15.1091 29.0277 15.2151C29.0112 15.245 28.9915 15.2711 28.9702 15.2941C28.9602 15.3056 28.9529 15.3135 28.9529 15.3135L28.9526 15.3125C28.9339 15.3297 28.9138 15.3451 28.8917 15.3563C28.7443 15.4303 28.5232 15.4303 28.3024 15.4303H26.8293V14.2494H28.3023ZM28.3023 12.4774H26.8292C25.8525 12.4774 25.0608 13.2707 25.0608 14.2493V15.4302C25.0608 16.4087 25.8525 17.202 26.8292 17.202H28.3023C28.6446 17.202 29.162 17.202 29.6831 16.9408C29.685 16.9397 29.687 16.9388 29.689 16.9378C29.8451 16.8588 29.9922 16.7577 30.1268 16.6373C30.166 16.6028 30.2038 16.5663 30.2401 16.5282C30.2401 16.5282 30.2599 16.5073 30.2881 16.4756C30.3864 16.3663 30.4731 16.2478 30.5469 16.1223C30.8464 15.627 30.9657 15.034 30.8853 14.4411C30.8784 14.3814 30.8689 14.3217 30.8568 14.2612C30.8458 14.2006 30.8321 14.1414 30.8149 14.0821C30.8046 14.0463 30.7932 14.0111 30.781 13.9766C30.5965 13.4409 30.2113 13.0044 29.6866 12.74C29.6845 12.7388 29.6823 12.7378 29.6802 12.7368C29.1603 12.4774 28.6439 12.4774 28.3023 12.4774Z" fill="#202121"/>
<path d="M8.78478 16.094H10.4053L9.59525 14.028L8.78478 16.094Z" fill="white"/>
<path d="M17.4022 23.0308V23.9902H20.1273V25.0236H17.4022V26.1308H20.4217L21.8212 24.5807L20.4954 23.0308H17.4022Z" fill="white"/>
<path d="M38.687 14.028L37.8032 16.094H39.4975L38.687 14.028Z" fill="white"/>
<path d="M25.2829 26.7205V22.5143L23.3677 24.5806L25.2829 26.7205Z" fill="white"/>
<path d="M28.8916 23.6953C28.8179 23.2526 28.523 23.0309 28.0809 23.0309H26.5346V24.3592H28.155C28.5969 24.3591 28.8916 24.138 28.8916 23.6953Z" fill="white"/>
<path d="M34.0469 24.2118C34.1943 24.1378 34.2681 23.9162 34.2681 23.6952C34.3419 23.4002 34.1943 23.2525 34.0469 23.1785C33.9 23.1046 33.6788 23.1046 33.4581 23.1046H31.9849V24.2855H33.4581C33.6788 24.2857 33.9 24.2857 34.0469 24.2118Z" fill="white"/>
<path d="M44.6527 12.1091V12.9947L44.2109 12.1091H40.7496V12.9947L40.3075 12.1091H35.5939C34.7839 12.1091 34.1207 12.2568 33.5316 12.552V12.1091H30.2174V12.183V12.552C29.8492 12.2568 29.4074 12.1091 28.818 12.1091H16.9603L16.1498 13.954L15.3397 12.1091H12.6883H11.5834V12.9947L11.2151 12.1091H11.1414H7.97475L6.50158 15.5774L4.80779 19.3409L4.77662 19.4149H4.80779H8.56406H8.61109L8.63778 19.3409L9.07976 18.2342H10.0372L10.4791 19.4149H14.7504V19.3409V18.5294L15.1191 19.4149H17.2548L17.6229 18.5294V19.3409V19.4149H19.3168H27.7868H27.8607V17.4961H28.0081C28.1552 17.4961 28.1552 17.4961 28.1552 17.7176V19.3409H33.4581V18.8982C33.9001 19.1199 34.5626 19.3409 35.4466 19.3409H37.6563L38.0982 18.1605H39.129L39.5709 19.3409H43.8425V18.603V18.2342L44.5057 19.3409H44.6526H44.7264H47.9671V12.109L44.6527 12.1091ZM19.6852 18.3082H18.9485H18.5067V17.8657V14.2493L18.4329 14.4186V14.4166L16.7195 18.3082H16.6654H16.2715H15.6342L13.8667 14.2493V18.3082H11.3626L10.847 17.2013H8.34279L7.82709 18.3082H6.53253L8.7115 13.1425H10.5526L12.6147 18.0867V13.1425H13.0564H14.5659L14.6006 13.2165H14.6033L15.5326 15.2429L16.1999 16.7611L16.2235 16.6846L17.6964 13.1425H19.6852V18.3082ZM24.7673 14.2494H21.8947V15.2087H24.6935V16.2417H21.8947V17.2751H24.7673V18.3818H20.6429V13.1425H24.7673V14.2494ZM30.0206 16.1522C30.0225 16.1538 30.025 16.1551 30.0272 16.1567C30.0549 16.1862 30.0789 16.2157 30.0992 16.2441C30.2404 16.4294 30.3544 16.7051 30.3602 17.1091C30.3605 17.1161 30.3609 17.123 30.3614 17.13C30.3614 17.1341 30.362 17.1376 30.362 17.1418C30.362 17.1442 30.3617 17.1459 30.3617 17.1481C30.3634 17.1888 30.3645 17.2302 30.3645 17.2751V18.3082H29.2599V17.7177C29.2599 17.4224 29.2599 16.9796 29.0386 16.6846C28.9691 16.6149 28.8985 16.5688 28.8221 16.5362C28.7117 16.4646 28.5024 16.4634 28.1551 16.4634H26.8291V18.3084H25.5772V13.1427H28.376C29.0385 13.1427 29.4806 13.1427 29.849 13.364C30.21 13.5811 30.4278 13.9413 30.4362 14.5115C30.4192 15.2968 29.916 15.7277 29.5543 15.8731C29.5544 15.8728 29.8 15.9225 30.0206 16.1522ZM32.5008 18.3082H31.2487V13.1425H32.5008V18.3082ZM46.8626 18.3082H45.242L42.8853 14.3969V17.6439L42.8776 17.6361V18.3113H41.6334V18.3082H40.3814L39.9395 17.2013H37.3615L36.9196 18.3817H35.5202C34.9314 18.3817 34.1945 18.2343 33.7528 17.7915C33.3108 17.3488 33.0901 16.7584 33.0901 15.7992C33.0901 15.0612 33.2371 14.3228 33.7528 13.7327C34.1207 13.2896 34.7839 13.1424 35.5939 13.1424H36.7725V14.2493H35.5939C35.152 14.2493 34.9313 14.3229 34.6362 14.5446C34.4155 14.7659 34.2682 15.2086 34.2682 15.725C34.2682 16.3155 34.342 16.6845 34.6362 16.9795C34.8576 17.2012 35.152 17.275 35.5201 17.275H36.0357L37.7296 13.2164H38.4663H39.5709L41.6334 18.1605V17.9084V16.2416V16.0942V13.2164H43.4745L45.61 16.8322V13.2164H46.8626V18.3082Z" fill="white"/>
<path d="M28.9702 15.2941C28.9916 15.2711 29.0113 15.245 29.0277 15.2151C29.0944 15.1092 29.1711 14.9188 29.1297 14.6586C29.128 14.6347 29.1237 14.6127 29.1187 14.5913C29.1173 14.5854 29.1175 14.5802 29.1158 14.5742L29.1153 14.5743C29.0787 14.448 28.9851 14.3702 28.8916 14.323C28.7442 14.2494 28.523 14.2494 28.3023 14.2494H26.8291V15.4303H28.3023C28.5231 15.4303 28.7442 15.4303 28.8916 15.3563C28.9138 15.3452 28.9336 15.3297 28.9524 15.3125L28.9528 15.3135C28.9529 15.3132 28.9602 15.3052 28.9702 15.2941Z" fill="white"/>
<path d="M51.2078 25.6878C51.2078 25.1712 51.0607 24.6546 50.8398 24.2856V20.965H50.8365V20.7433C50.8365 20.7433 47.7493 20.7433 47.29 20.7433C46.8305 20.7433 46.2734 21.1859 46.2734 21.1859V20.7433H42.8855C42.3698 20.7433 41.7074 20.891 41.4123 21.1859V20.7433H35.3733V20.965V21.1859C34.9315 20.8173 34.1209 20.7433 33.7529 20.7433H29.7757V20.965V21.1859C29.4076 20.8173 28.5235 20.7433 28.0813 20.7433H23.6627L22.6314 21.8504L21.6738 20.7433H21.3655H20.8637H15.0455V20.965V21.5479V28.197H21.5267L22.5918 27.1296L23.515 28.197H23.5889H27.3233H27.4926H27.5663H27.6396V27.459V26.4997H28.0082C28.5233 26.4997 29.1866 26.4997 29.702 26.278V28.1227V28.2706H33.0165V28.1227V26.3518H33.1634C33.3845 26.3518 33.3845 26.3518 33.3845 26.5732V28.1227V28.2706H43.4009C44.0641 28.2706 44.7266 28.1227 45.0949 27.8276V28.1228V28.2707H48.262C48.9246 28.2707 49.588 28.197 50.0298 27.9016C50.7079 27.494 51.1352 26.7724 51.1987 25.9118C51.2018 25.8863 51.2056 25.8609 51.2078 25.8353L51.2034 25.8312C51.2057 25.7833 51.2078 25.7359 51.2078 25.6878ZM28.0079 25.2452H26.5347V25.4661V25.9091V26.3519V27.1637H24.1139L22.7049 25.54L22.7 25.5455L22.6313 25.4661L21.011 27.1637H16.2974V21.9982H21.0848L22.3927 23.4335L22.6676 23.734L22.705 23.6952L24.2518 21.9981H28.1552C28.9129 21.9981 29.7611 22.1855 30.0826 22.9578C30.1211 23.1107 30.1436 23.2807 30.1436 23.4738C30.1435 24.9498 29.1122 25.2452 28.0079 25.2452ZM35.373 25.1712C35.52 25.3922 35.5938 25.6878 35.5938 26.1308V27.1637H34.3419V26.4997C34.3419 26.204 34.3419 25.6878 34.1206 25.466C33.9737 25.2451 33.6787 25.2451 33.237 25.2451H31.9113V27.1636H30.6594V21.9241H33.458C34.0469 21.9241 34.5625 21.9241 34.9312 22.1453C35.2992 22.3668 35.5938 22.7358 35.5938 23.3263C35.5938 24.1378 35.0783 24.5807 34.7099 24.7285C35.0784 24.8756 35.2993 25.0236 35.373 25.1712ZM40.4551 23.0307H37.5823V23.9902H40.3811V25.0235H37.5823V26.0567H40.4551V27.1636H36.3306V21.9241H40.4551V23.0307ZM43.5483 27.1636H41.1913V26.0567H43.5483C43.7688 26.0567 43.9165 26.0567 44.064 25.909C44.1377 25.835 44.2109 25.6877 44.2109 25.54C44.2109 25.3921 44.1377 25.2452 44.064 25.1712C43.9902 25.0975 43.8426 25.0236 43.6218 25.0236C42.4433 24.9498 41.044 25.0236 41.044 23.4004C41.044 22.6623 41.4858 21.8505 42.8118 21.8505H45.2421V23.1048H42.9592C42.7384 23.1048 42.5908 23.1048 42.4434 23.1787C42.2965 23.2527 42.2965 23.4004 42.2965 23.5478C42.2965 23.7693 42.4434 23.8431 42.5907 23.9163C42.7384 23.9903 42.8854 23.9903 43.0326 23.9903H43.6955C44.3583 23.9903 44.8002 24.1379 45.0949 24.4332C45.3159 24.6546 45.4632 25.0236 45.4632 25.5401C45.4631 26.6467 44.8001 27.1636 43.5483 27.1636ZM49.8821 26.6467C49.5879 26.9423 49.0721 27.1637 48.3351 27.1637H45.9789V26.0568H48.3351C48.5562 26.0568 48.7039 26.0568 48.8509 25.9091C48.9245 25.8351 48.9982 25.6878 48.9982 25.5401C48.9982 25.3922 48.9244 25.2453 48.8509 25.1713C48.7772 25.0976 48.6301 25.0237 48.4091 25.0237C47.2311 24.9499 45.8314 25.0237 45.8314 23.4005C45.8314 22.699 46.2318 22.0656 47.2195 21.8774C47.3377 21.8611 47.4626 21.8505 47.5991 21.8505H50.0296V23.1048H48.4091H47.8202H47.7464C47.5253 23.1048 47.3783 23.1048 47.2309 23.1787C47.1569 23.2527 47.0831 23.4004 47.0831 23.5478C47.0831 23.7693 47.1569 23.8431 47.3782 23.9163C47.5252 23.9903 47.6725 23.9903 47.82 23.9903H47.8932H48.4825C48.8044 23.9903 49.0479 24.0301 49.2707 24.1085C49.4746 24.1825 50.1499 24.4852 50.3011 25.2752C50.3142 25.3581 50.3237 25.4444 50.3237 25.5401C50.3239 25.983 50.1765 26.3519 49.8821 26.6467Z" fill="white"/>
</g>
<defs>
<clipPath id="clip0">
<rect width="56" height="40" fill="white"/>
</clipPath>
</defs>
</svg>
