<svg width="44" height="32" viewBox="0 0 44 32" fill="none" xmlns="http://www.w3.org/2000/svg">
<path d="M44 29.257C44 30.7719 42.8356 32 41.3991 32H2.60087C1.16435 32 0 30.7718 0 29.257V2.74289C0 1.22798 1.16444 0 2.60087 0H41.399C42.8355 0 43.9998 1.22808 43.9998 2.74289V29.2571L44 29.257Z" fill="#C9C4C1"/>
<path d="M6.79303 11.2222L7.44534 12.8752H6.14037L6.79303 11.2222ZM6.79312 9.80469C6.20766 9.80469 5.68175 10.1612 5.46754 10.7038L4.81497 12.3568C4.64277 12.7931 4.69826 13.2861 4.96356 13.6735C5.22885 14.061 5.66933 14.2928 6.14046 14.2928H7.44543C7.91638 14.2928 8.35695 14.0609 8.62224 13.6736C8.88753 13.2862 8.94311 12.7932 8.77092 12.357L8.11861 10.7039C7.9044 10.1614 7.37857 9.80469 6.79312 9.80469Z" fill="#C9C4C1"/>
<path d="M15.5707 18.4243L16.6383 19.6642L15.5114 20.9043H13.0798V20.0185H15.2744V19.1919H13.0798V18.4243H15.5707ZM15.5707 17.0068H13.0798C12.2934 17.0068 11.6558 17.6415 11.6558 18.4243V19.1919C11.6558 19.3356 11.6773 19.4744 11.7172 19.6052C11.6773 19.736 11.6558 19.8748 11.6558 20.0186V20.9043C11.6558 21.6872 12.2934 22.3218 13.0798 22.3218H15.5114C15.9138 22.3218 16.2975 22.1523 16.5674 21.8551L17.6944 20.6151C18.1753 20.0859 18.1861 19.2835 17.7197 18.7418L16.6521 17.5019C16.3815 17.1877 15.9866 17.0068 15.5707 17.0068Z" fill="#C9C4C1"/>
<path d="M30.2203 11.2222L30.8729 12.8752H29.5086L30.2203 11.2222ZM30.2203 9.80469C29.6513 9.80469 29.136 10.142 28.9114 10.6638L28.1997 12.3168C28.0111 12.7548 28.0561 13.2578 28.3198 13.6555C28.5832 14.0533 29.03 14.2927 29.5086 14.2927H30.8729C31.3439 14.2927 31.7845 14.0609 32.0498 13.6734C32.3151 13.286 32.3707 12.7931 32.1985 12.3567L31.5459 10.7037C31.3346 10.1686 30.8197 9.81354 30.2422 9.80477C30.2349 9.80486 30.2276 9.80469 30.2203 9.80469Z" fill="#C9C4C1"/>
<path d="M19.4263 18.0115V21.3765L17.8841 19.6646L19.4263 18.0115ZM19.4266 16.5938C19.0381 16.5938 18.6576 16.7523 18.3828 17.0467L16.8405 18.7C16.3396 19.237 16.3323 20.0653 16.8238 20.6109L18.366 22.3228C18.6415 22.6285 19.0295 22.794 19.4265 22.794C19.5972 22.794 19.7694 22.7634 19.9352 22.7002C20.4863 22.4903 20.8503 21.9638 20.8503 21.3764V18.0114C20.8503 17.4286 20.4918 16.9051 19.9468 16.6919C19.7778 16.626 19.6013 16.5938 19.4266 16.5938Z" fill="#C9C4C1"/>
<path d="M21.6796 18.4243C22.0356 18.4243 22.273 18.6017 22.3324 18.9558C22.3324 19.31 22.095 19.487 21.7392 19.487H20.4343V18.4243H21.6796ZM21.6796 17.0068H20.4343C19.6479 17.0068 19.0103 17.6415 19.0103 18.4243V19.487C19.0103 20.2698 19.6479 20.9044 20.4343 20.9044H21.7392C22.908 20.9044 23.7564 20.0849 23.7564 18.9558C23.7564 18.8777 23.75 18.7998 23.7371 18.7227C23.565 17.6964 22.7382 17.0068 21.6796 17.0068Z" fill="#C9C4C1"/>
<path d="M26.0093 18.4839C26.187 18.4839 26.3652 18.4839 26.4835 18.543C26.6022 18.6021 26.7211 18.7203 26.6616 18.9563C26.6616 19.1332 26.6022 19.3104 26.4835 19.3696C26.3652 19.4287 26.187 19.4287 26.0093 19.4287H24.823V18.484L26.0093 18.4839ZM26.0093 17.0664H24.823C24.0365 17.0664 23.3989 17.7011 23.3989 18.4839V19.4286C23.3989 20.2114 24.0365 20.8461 24.823 20.8461H26.0093C26.2852 20.8461 26.7024 20.8461 27.122 20.6366C27.6721 20.3623 28.0297 19.7898 28.0798 19.119C28.1965 18.3521 27.8266 17.627 27.1213 17.2753C26.7024 17.0664 26.2853 17.0664 26.0093 17.0664Z" fill="#C9C4C1"/>
<path d="M21.8575 11.399C22.0353 11.399 22.2133 11.399 22.332 11.4579C22.4074 11.4956 22.4827 11.5578 22.5121 11.6589L22.5126 11.6589C22.514 11.6637 22.5138 11.6678 22.5149 11.6725C22.5189 11.6897 22.5224 11.7073 22.5238 11.7264C22.557 11.9345 22.4953 12.0868 22.4416 12.1716C22.4283 12.1955 22.4124 12.2164 22.3953 12.2348C22.3872 12.244 22.3813 12.2503 22.3813 12.2503L22.3811 12.2495C22.366 12.2633 22.3499 12.2756 22.3321 12.2846C22.2134 12.3437 22.0353 12.3437 21.8575 12.3437H20.6712V11.399H21.8575ZM21.8575 9.98145H20.6711C19.8847 9.98145 19.2471 10.6161 19.2471 11.3989V12.3437C19.2471 13.1265 19.8847 13.7611 20.6711 13.7611H21.8575C22.133 13.7611 22.5497 13.7611 22.9694 13.5521C22.9709 13.5512 22.9725 13.5505 22.9741 13.5497C23.0998 13.4865 23.2183 13.4057 23.3267 13.3094C23.3582 13.2817 23.3887 13.2525 23.4179 13.222C23.4179 13.222 23.4339 13.2054 23.4566 13.18C23.5357 13.0925 23.6055 12.9978 23.665 12.8974C23.9062 12.5011 24.0022 12.0267 23.9375 11.5524C23.932 11.5046 23.9243 11.4569 23.9145 11.4085C23.9057 11.36 23.8946 11.3126 23.8808 11.2652C23.8725 11.2365 23.8633 11.2084 23.8535 11.1808C23.7049 10.7523 23.3947 10.4031 22.9722 10.1915C22.9705 10.1905 22.9687 10.1898 22.9671 10.189C22.5483 9.98145 22.1325 9.98145 21.8575 9.98145Z" fill="#C9C4C1"/>
<path d="M5.45312 12.7058H6.84917L6.15134 11.0439L5.45312 12.7058Z" fill="white"/>
<path d="M12.877 18.2852V19.0569H15.2246V19.8882H12.877V20.7787H15.4782L16.6839 19.5319L15.5417 18.2852H12.877Z" fill="white"/>
<path d="M31.2136 11.0439L30.4521 12.7058H31.9118L31.2136 11.0439Z" fill="white"/>
<path d="M19.666 21.2535V17.8701L18.0161 19.5322L19.666 21.2535Z" fill="white"/>
<path d="M22.7747 18.8196C22.7112 18.4635 22.4572 18.2852 22.0763 18.2852H20.7441V19.3536H22.1401C22.5208 19.3535 22.7747 19.1756 22.7747 18.8196Z" fill="white"/>
<path d="M27.2159 19.2353C27.3428 19.1758 27.4064 18.9976 27.4064 18.8198C27.47 18.5825 27.3428 18.4636 27.2159 18.4041C27.0893 18.3447 26.8987 18.3447 26.7086 18.3447H25.4395V19.2946H26.7086C26.8987 19.2947 27.0893 19.2947 27.2159 19.2353Z" fill="white"/>
<path d="M36.3528 9.50009V10.2124L35.9722 9.50009H32.9904V10.2124L32.6095 9.50009H28.5488C27.8509 9.50009 27.2797 9.61891 26.7722 9.8563V9.50009H23.9169V9.5595V9.8563C23.5998 9.61891 23.2192 9.50009 22.7114 9.50009H12.4962L11.7978 10.9841L11.1 9.50009H8.8158H7.86393V10.2124L7.54668 9.50009H7.48317H4.75515L3.48603 12.2898L2.02685 15.3171L2 15.3766H2.02685H5.26284H5.30336L5.32635 15.3171L5.70711 14.4269H6.53196L6.91263 15.3766H10.5923V15.3171V14.6643L10.91 15.3766H12.7498L13.067 14.6643V15.3171V15.3766H14.5262H21.8231H21.8867V13.8332H22.0137C22.1404 13.8332 22.1404 13.8332 22.1404 14.0113V15.3171H26.7088V14.961C27.0896 15.1393 27.6603 15.3171 28.4219 15.3171H30.3255L30.7062 14.3676H31.5942L31.9749 15.3171H35.6549V14.7236V14.4269L36.2262 15.3171H36.3527H36.4163H39.2081V9.5L36.3528 9.50009ZM14.8436 14.4865H14.2089H13.8283V14.1305V11.2216L13.7647 11.3578V11.3562L12.2887 14.4865H12.242H11.9027H11.3537L9.83098 11.2216V14.4865H7.67379L7.22961 13.5961H5.07222L4.62795 14.4865H3.5127L5.38986 10.3313H6.97595L8.75239 14.3082V10.3313H9.13296H10.4334L10.4632 10.3908H10.4656L11.2661 12.0208L11.841 13.242L11.8614 13.1804L13.1303 10.3313H14.8436V14.4865ZM19.2218 11.2217H16.747V11.9933H19.1582V12.8242H16.747V13.6555H19.2218V14.5456H15.6686V10.3313H19.2218V11.2217ZM23.7474 12.7522C23.749 12.7535 23.7512 12.7546 23.7531 12.7558C23.777 12.7795 23.7976 12.8033 23.8152 12.8262C23.9368 12.9752 24.035 13.1969 24.04 13.5219C24.0403 13.5276 24.0406 13.5331 24.041 13.5388C24.041 13.542 24.0415 13.5448 24.0415 13.5482C24.0415 13.5501 24.0413 13.5515 24.0413 13.5533C24.0427 13.586 24.0437 13.6193 24.0437 13.6555V14.4865H23.0921V14.0114C23.0921 13.7739 23.0921 13.4177 22.9015 13.1804C22.8415 13.1244 22.7808 13.0873 22.7149 13.0611C22.6198 13.0035 22.4395 13.0025 22.1403 13.0025H20.998V14.4865H19.9195V10.3314H22.3307C22.9014 10.3314 23.2822 10.3314 23.5996 10.5095C23.9106 10.6841 24.0982 10.9739 24.1055 11.4325C24.0908 12.0642 23.6573 12.4108 23.3457 12.5277C23.3458 12.5275 23.5574 12.5674 23.7474 12.7522ZM25.8841 14.4865H24.8054V10.3313H25.8841V14.4865ZM38.2566 14.4865H36.8605L34.8302 11.3403V13.9521L34.8236 13.9458V14.4889H33.7517V14.4865H32.6731L32.2925 13.5961H30.0716L29.6909 14.5455H28.4853C27.9781 14.5455 27.3432 14.427 26.9627 14.0708C26.5819 13.7147 26.3918 13.2398 26.3918 12.4683C26.3918 11.8747 26.5184 11.2807 26.9627 10.806C27.2797 10.4496 27.8509 10.3313 28.5488 10.3313H29.5642V11.2216H28.5488C28.1681 11.2216 27.978 11.2808 27.7237 11.4591C27.5336 11.6371 27.4067 11.9932 27.4067 12.4086C27.4067 12.8835 27.4703 13.1803 27.7237 13.4176C27.9145 13.596 28.1681 13.6554 28.4852 13.6554H28.9294L30.3886 10.3908H31.0233H31.9749L33.7517 14.3676V14.1648V12.8241V12.7056V10.3908H35.3378L37.1776 13.2992V10.3908H38.2566V14.4865Z" fill="white"/>
<path d="M22.8425 12.062C22.861 12.0435 22.8779 12.0225 22.8921 11.9985C22.9495 11.9133 23.0156 11.7601 22.98 11.5508C22.9785 11.5316 22.9748 11.5139 22.9705 11.4967C22.9692 11.4919 22.9694 11.4878 22.968 11.483L22.9675 11.483C22.936 11.3814 22.8554 11.3188 22.7749 11.2809C22.6478 11.2217 22.4573 11.2217 22.2672 11.2217H20.998V12.1716H22.2672C22.4574 12.1716 22.6478 12.1716 22.7749 12.1121C22.794 12.1031 22.811 12.0907 22.8272 12.0768L22.8275 12.0776C22.8276 12.0773 22.8339 12.0709 22.8425 12.062Z" fill="white"/>
<path d="M42.0002 20.4225C42.0002 20.007 41.8734 19.5915 41.6831 19.2947V16.6236H41.6803V16.4453C41.6803 16.4453 39.0207 16.4453 38.625 16.4453C38.2292 16.4453 37.7492 16.8013 37.7492 16.8013V16.4453H34.8305C34.3863 16.4453 33.8156 16.5641 33.5614 16.8013V16.4453H28.3589V16.6236V16.8013C27.9783 16.5048 27.28 16.4453 26.9629 16.4453H23.5366V16.6236V16.8013C23.2195 16.5048 22.4578 16.4453 22.0768 16.4453H18.2703L17.3819 17.3358L16.5569 16.4453H16.2913H15.859H10.8467V16.6236V17.0925V22.4408H16.4302L17.3478 21.5822L18.143 22.4408H18.2067H21.4239H21.5697H21.6332H21.6964V21.8472V21.0756H22.0139C22.4577 21.0756 23.0291 21.0756 23.4731 20.8972V22.3811V22.5001H26.3285V22.3811V20.9566H26.455C26.6456 20.9566 26.6456 20.9566 26.6456 21.1347V22.3811V22.5001H35.2745C35.8459 22.5001 36.4166 22.3811 36.7339 22.1437V22.3811V22.5001H39.4624C40.0332 22.5001 40.6047 22.4408 40.9853 22.2033C41.5695 21.8753 41.9376 21.295 41.9923 20.6027C41.995 20.5822 41.9983 20.5617 42.0002 20.5412L41.9964 20.5378C41.9984 20.4993 42.0002 20.4612 42.0002 20.4225ZM22.0136 20.0665H20.7445V20.2442V20.6005V20.9567V21.6097H18.659L17.4452 20.3036L17.441 20.308L17.3818 20.2442L15.9859 21.6097H11.9252V17.4547H16.0494L17.1762 18.6092L17.4131 18.8509L17.4453 18.8197L18.7778 17.4546H22.1405C22.7933 17.4546 23.5241 17.6054 23.801 18.2266C23.8341 18.3496 23.8536 18.4863 23.8536 18.6417C23.8535 19.8289 22.965 20.0665 22.0136 20.0665ZM28.3586 20.007C28.4852 20.1847 28.5488 20.4225 28.5488 20.7788V21.6097H27.4703V21.0756C27.4703 20.8377 27.4703 20.4225 27.2797 20.2441C27.1531 20.0664 26.899 20.0664 26.5184 20.0664H25.3764V21.6096H24.2979V17.3951H26.7089C27.2162 17.3951 27.6604 17.3951 27.978 17.573C28.2951 17.7513 28.5488 18.0481 28.5488 18.523C28.5488 19.1758 28.1047 19.532 27.7874 19.6509C28.1048 19.7692 28.2952 19.8883 28.3586 20.007ZM32.7368 18.2853H30.2619V19.057H32.6731V19.8882H30.2619V20.7193H32.7368V21.6096H29.1836V17.3951H32.7368V18.2853ZM35.4015 21.6096H33.371V20.7193H35.4015C35.5915 20.7193 35.7187 20.7193 35.8458 20.6004C35.9093 20.5409 35.9724 20.4225 35.9724 20.3036C35.9724 20.1846 35.9093 20.0665 35.8458 20.007C35.7822 19.9477 35.6551 19.8883 35.4649 19.8883C34.4496 19.8289 33.2442 19.8883 33.2442 18.5826C33.2442 17.9889 33.6247 17.3359 34.767 17.3359H36.8607V18.3449H34.8941C34.7038 18.3449 34.5767 18.3449 34.4497 18.4043C34.3231 18.4638 34.3231 18.5826 34.3231 18.7012C34.3231 18.8793 34.4497 18.9387 34.5766 18.9976C34.7038 19.0571 34.8305 19.0571 34.9573 19.0571H35.5284C36.0994 19.0571 36.4801 19.1758 36.7339 19.4133C36.9243 19.5915 37.0512 19.8883 37.0512 20.3037C37.0512 21.1939 36.48 21.6096 35.4015 21.6096ZM40.8581 21.1939C40.6046 21.4316 40.1602 21.6097 39.5253 21.6097H37.4955V20.7193H39.5253C39.7159 20.7193 39.8431 20.7193 39.9697 20.6005C40.0331 20.541 40.0966 20.4225 40.0966 20.3037C40.0966 20.1847 40.033 20.0666 39.9697 20.0071C39.9062 19.9478 39.7795 19.8884 39.5891 19.8884C38.5742 19.8289 37.3684 19.8884 37.3684 18.5827C37.3684 18.0184 37.7134 17.5089 38.5642 17.3576C38.6661 17.3444 38.7737 17.3359 38.8913 17.3359H40.9852V18.3449H39.5891H39.0817H39.0182C38.8277 18.3449 38.701 18.3449 38.5741 18.4043C38.5103 18.4638 38.4467 18.5826 38.4467 18.7012C38.4467 18.8793 38.5103 18.9387 38.7009 18.9976C38.8276 19.0571 38.9545 19.0571 39.0816 19.0571H39.1447H39.6523C39.9297 19.0571 40.1394 19.0891 40.3313 19.1522C40.507 19.2117 41.0888 19.4552 41.219 20.0907C41.2303 20.1573 41.2385 20.2268 41.2385 20.3037C41.2386 20.6599 41.1117 20.9567 40.8581 21.1939Z" fill="white"/>
</svg>
