<svg width="61" height="40" viewBox="0 0 61 40" fill="none" xmlns="http://www.w3.org/2000/svg">
<g clip-path="url(#clip0)">
<path d="M26.0661 29.323H21.1953L24.2418 10.7369H29.1123L26.0661 29.323Z" fill="#2D2926"/>
<path d="M43.7229 11.1913C42.7622 10.8152 41.2384 10.4 39.3542 10.4C34.5442 10.4 31.1571 12.9308 31.1363 16.549C31.0963 19.2185 33.5614 20.7012 35.4051 21.5913C37.2895 22.5008 37.9301 23.0945 37.9301 23.9052C37.9109 25.1503 36.4073 25.7243 35.005 25.7243C33.0604 25.7243 32.0184 25.4284 30.435 24.7356L29.7936 24.4387L29.112 28.6109C30.2544 29.1244 32.3591 29.5801 34.5442 29.6C39.6549 29.6 42.9822 27.1084 43.0216 23.2527C43.041 21.1369 41.7394 19.5157 38.9331 18.1909C37.2296 17.3405 36.1863 16.7671 36.1863 15.897C36.2062 15.1059 37.0687 14.2957 38.9917 14.2957C40.5752 14.2561 41.7386 14.6316 42.6199 15.0074L43.0605 15.2048L43.7229 11.1913Z" fill="#2D2926"/>
<path d="M50.1965 22.7386C50.5976 21.6709 52.1411 17.5384 52.1411 17.5384C52.1208 17.5781 52.5414 16.451 52.7819 15.759L53.1223 17.3605C53.1223 17.3605 54.0447 21.8094 54.245 22.7386C53.4838 22.7386 51.1585 22.7386 50.1965 22.7386ZM56.2088 10.7369H52.4413C51.2795 10.7369 50.3968 11.0728 49.8955 12.279L42.6607 29.3228H47.7714C47.7714 29.3228 48.6128 27.0288 48.7936 26.5348C49.3543 26.5348 54.3259 26.5348 55.0472 26.5348C55.1871 27.1873 55.6284 29.3228 55.6284 29.3228H60.1382L56.2088 10.7369Z" fill="#2D2926"/>
<path d="M17.1271 10.7369L12.3571 23.4109L11.8358 20.8405C10.9539 17.8745 8.18816 14.6521 5.10171 13.0498L9.4709 29.3033H14.6216L22.2775 10.7369H17.1271Z" fill="#2D2926"/>
<path d="M7.92768 10.7369H0.0911571L0.0109863 11.1125C6.12396 12.6548 10.1725 16.3726 11.8358 20.8413L10.1323 12.2993C9.85179 11.1122 8.98988 10.7761 7.92768 10.7369Z" fill="#2D2926"/>
</g>
<defs>
<clipPath id="clip0">
<rect x="0.0109863" width="60" height="40" fill="white"/>
</clipPath>
</defs>
</svg>
