<svg width="44" height="32" viewBox="0 0 44 32" fill="none" xmlns="http://www.w3.org/2000/svg">
<path d="M36.8882 26.95C36.8882 27.4357 36.5368 27.7857 36.0326 27.7857C35.5132 27.7857 35.1771 27.4143 35.1771 26.95C35.1771 26.4857 35.5132 26.1143 36.0326 26.1143C36.5368 26.1143 36.8882 26.4857 36.8882 26.95ZM13.1465 26.1143C12.6042 26.1143 12.291 26.4857 12.291 26.95C12.291 27.4143 12.6042 27.7857 13.1465 27.7857C13.6431 27.7857 13.9792 27.4357 13.9792 26.95C13.9715 26.4857 13.6431 26.1143 13.1465 26.1143ZM22.1222 26.0929C21.7097 26.0929 21.4576 26.3429 21.3965 26.7143H22.8556C22.7868 26.3071 22.5194 26.0929 22.1222 26.0929ZM30.3569 26.1143C29.8375 26.1143 29.5243 26.4857 29.5243 26.95C29.5243 27.4143 29.8375 27.7857 30.3569 27.7857C30.8764 27.7857 31.2125 27.4357 31.2125 26.95C31.2125 26.4857 30.8764 26.1143 30.3569 26.1143ZM38.4465 27.9786C38.4465 28 38.4694 28.0143 38.4694 28.0571C38.4694 28.0786 38.4465 28.0929 38.4465 28.1357C38.4236 28.1571 38.4236 28.1714 38.4083 28.1929C38.3854 28.2143 38.3701 28.2286 38.3243 28.2286C38.3014 28.25 38.2861 28.25 38.2403 28.25C38.2174 28.25 38.2021 28.25 38.1562 28.2286C38.1333 28.2286 38.1181 28.2071 38.0951 28.1929C38.0722 28.1714 38.0569 28.1571 38.0569 28.1357C38.034 28.1 38.034 28.0786 38.034 28.0571C38.034 28.0214 38.034 28 38.0569 27.9786C38.0569 27.9429 38.0799 27.9214 38.0951 27.9C38.1181 27.8786 38.1333 27.8786 38.1562 27.8643C38.1944 27.8429 38.2174 27.8429 38.2403 27.8429C38.2785 27.8429 38.3014 27.8429 38.3243 27.8643C38.3625 27.8857 38.3854 27.8857 38.4083 27.9C38.4312 27.9143 38.4236 27.9429 38.4465 27.9786ZM38.2785 28.0786C38.3167 28.0786 38.3167 28.0571 38.3396 28.0571C38.3625 28.0357 38.3625 28.0214 38.3625 28C38.3625 27.9786 38.3625 27.9643 38.3396 27.9429C38.3167 27.9429 38.3014 27.9214 38.2556 27.9214H38.1333V28.1714H38.1944V28.0714H38.2174L38.3014 28.1714H38.3625L38.2785 28.0786ZM44 3.42857V28.5714C44 30.4643 42.3576 32 40.3333 32H3.66667C1.64236 32 0 30.4643 0 28.5714V3.42857C0 1.53571 1.64236 0 3.66667 0H40.3333C42.3576 0 44 1.53571 44 3.42857ZM4.88889 13.4C4.88889 18.8643 9.63264 23.2929 15.4688 23.2929C17.5465 23.2929 19.5861 22.7071 21.3125 21.6429C15.7437 17.4071 15.7819 9.41429 21.3125 5.17857C19.5861 4.10714 17.5465 3.52857 15.4688 3.52857C9.63264 3.52143 4.88889 7.95714 4.88889 13.4ZM22 21.1714C27.3854 17.2429 27.3625 9.58571 22 5.63571C16.6375 9.58571 16.6146 17.25 22 21.1714ZM11.1299 26.6214C11.1299 26 10.6944 25.5929 10.0069 25.5714C9.65556 25.5714 9.28125 25.6714 9.02917 26.0357C8.84583 25.7429 8.53264 25.5714 8.09722 25.5714C7.80694 25.5714 7.51667 25.6714 7.2875 25.9571V25.6429H6.66111V28.2643H7.2875C7.2875 26.9143 7.09653 26.1071 7.975 26.1071C8.75417 26.1071 8.60139 26.8357 8.60139 28.2643H9.20486C9.20486 26.9571 9.01389 26.1071 9.89236 26.1071C10.6715 26.1071 10.5187 26.8214 10.5187 28.2643H11.1451V26.6214H11.1299ZM14.5597 25.6429H13.9562V25.9571C13.75 25.7214 13.4597 25.5714 13.0625 25.5714C12.2757 25.5714 11.6722 26.1571 11.6722 26.95C11.6722 27.75 12.2757 28.3286 13.0625 28.3286C13.4597 28.3286 13.75 28.1929 13.9562 27.9429V28.2714H14.5597V25.6429ZM17.6535 27.4714C17.6535 26.4 15.9042 26.8857 15.9042 26.3857C15.9042 25.9786 16.8132 26.0429 17.3174 26.3071L17.5694 25.8429C16.8514 25.4071 15.2625 25.4143 15.2625 26.4286C15.2625 27.45 17.0118 27.0214 17.0118 27.5C17.0118 27.95 15.9806 27.9143 15.4306 27.5571L15.1632 28.0071C16.0187 28.55 17.6535 28.4357 17.6535 27.4714ZM20.3576 28.1357L20.1896 27.65C19.8993 27.8 19.2576 27.9643 19.2576 27.3571V26.1714H20.2583V25.6429H19.2576V24.8429H18.6312V25.6429H18.0507V26.1643H18.6312V27.3571C18.6312 28.6143 19.9528 28.3857 20.3576 28.1357ZM21.3736 27.1786H23.4743C23.4743 26.0214 22.909 25.5643 22.1451 25.5643C21.3354 25.5643 20.7549 26.1286 20.7549 26.9429C20.7549 28.4071 22.4812 28.65 23.3368 27.9571L23.0465 27.5286C22.4507 27.9857 21.5493 27.9429 21.3736 27.1786ZM25.8882 25.6429C25.5368 25.5 25.0021 25.5143 24.7271 25.9571V25.6429H24.1007V28.2643H24.7271V26.7857C24.7271 25.9571 25.4528 26.0643 25.7049 26.1857L25.8882 25.6429ZM26.6979 26.95C26.6979 26.1357 27.584 25.8714 28.2792 26.35L28.5694 25.8857C27.6833 25.2357 26.0715 25.5929 26.0715 26.9571C26.0715 28.3714 27.7826 28.6571 28.5694 28.0286L28.2792 27.5643C27.5764 28.0286 26.6979 27.75 26.6979 26.95ZM31.7931 25.6429H31.1667V25.9571C30.5326 25.1714 28.8826 25.6143 28.8826 26.95C28.8826 28.3214 30.5938 28.7143 31.1667 27.9429V28.2714H31.7931V25.6429ZM34.3674 25.6429C34.184 25.5571 33.5271 25.4357 33.2062 25.9571V25.6429H32.6028V28.2643H33.2062V26.7857C33.2062 26 33.8937 26.05 34.184 26.1857L34.3674 25.6429ZM37.4458 24.5786H36.8424V25.9571C36.216 25.1786 34.5583 25.5929 34.5583 26.95C34.5583 28.3357 36.2771 28.7071 36.8424 27.9429V28.2714H37.4458V24.5786ZM38.0264 19.2143V19.5429H38.0875V19.2143H38.2326V19.1571H37.8812V19.2143H38.0264ZM38.5306 28.0571C38.5306 28.0214 38.5306 27.9786 38.5076 27.9429C38.4847 27.9214 38.4694 27.8857 38.4465 27.8643C38.4236 27.8429 38.3854 27.8286 38.3625 27.8071C38.3243 27.8071 38.2785 27.7857 38.2403 27.7857C38.2174 27.7857 38.1792 27.8071 38.1333 27.8071C38.0951 27.8286 38.0722 27.8429 38.0493 27.8643C38.0111 27.8857 37.9882 27.9214 37.9882 27.9429C37.9653 27.9786 37.9653 28.0214 37.9653 28.0571C37.9653 28.0786 37.9653 28.1143 37.9882 28.1571C37.9882 28.1786 38.0111 28.2143 38.0493 28.2357C38.0722 28.2571 38.0875 28.2714 38.1333 28.2929C38.1715 28.3143 38.2174 28.3143 38.2403 28.3143C38.2785 28.3143 38.3243 28.3143 38.3625 28.2929C38.3854 28.2714 38.4236 28.2571 38.4465 28.2357C38.4694 28.2143 38.4847 28.1786 38.5076 28.1571C38.5306 28.1143 38.5306 28.0786 38.5306 28.0571ZM38.775 19.15H38.6681L38.5458 19.4L38.4236 19.15H38.3167V19.5357H38.3778V19.2429L38.5 19.4929H38.584L38.691 19.2429V19.5357H38.775V19.15ZM39.1111 13.4C39.1111 7.95714 34.3674 3.52143 28.5312 3.52143C26.4535 3.52143 24.4139 4.10714 22.6875 5.17143C28.1951 9.40714 28.2792 17.4214 22.6875 21.6357C24.4139 22.7071 26.4688 23.2857 28.5312 23.2857C34.3674 23.2929 39.1111 18.8643 39.1111 13.4Z" fill="#C9C4C1"/>
</svg>
