<svg width="63" height="40" viewBox="0 0 63 40" fill="none" xmlns="http://www.w3.org/2000/svg">
<g clip-path="url(#clip0)">
<path fill-rule="evenodd" clip-rule="evenodd" d="M57.8774 0C58.0048 0.0128352 58.1365 0.0213048 58.2696 0.0298634C58.3307 0.0337909 58.3921 0.0377371 58.4535 0.0421326C58.6516 0.0563195 58.8498 0.0751863 59.0385 0.113208C59.4506 0.188679 59.8251 0.301887 60.1622 0.490566C60.4994 0.641509 60.8365 0.90566 61.0987 1.16981C61.3609 1.43396 61.5856 1.77358 61.7729 2.11321C61.9602 2.49057 62.0726 2.86792 62.1475 3.24528C62.2224 3.62264 62.2599 4.03774 62.2599 4.41509V35.5472C62.2471 35.6755 62.2387 35.8082 62.2302 35.9424C62.2137 36.2025 62.1969 36.468 62.1475 36.717C62.0726 37.1321 61.9602 37.5094 61.7729 37.8491C61.6231 38.1887 61.3609 38.5283 61.0987 38.7925C60.8365 39.0566 60.4994 39.283 60.1622 39.4717C59.7877 39.6604 59.4131 39.7736 59.0385 39.8491C58.6639 39.9245 58.2519 39.9623 57.8774 39.9623H4.65043C4.52303 39.9494 4.39129 39.941 4.25817 39.9324C3.9999 39.9158 3.73642 39.8989 3.48925 39.8491C3.07722 39.7736 2.70264 39.6604 2.36553 39.4717C2.02841 39.3208 1.6913 39.0566 1.42909 38.7925C1.16689 38.5283 0.942148 38.1887 0.754862 37.8491C0.567575 37.4717 0.455203 37.0943 0.380288 36.717C0.305373 36.3396 0.267916 35.9245 0.267916 35.5472V4.41509C0.280656 4.28674 0.289063 4.15402 0.297559 4.01991C0.31404 3.75973 0.330854 3.49429 0.380288 3.24528C0.455203 2.83019 0.567575 2.45283 0.754862 2.11321C0.904691 1.77358 1.16689 1.43396 1.42909 1.16981C1.6913 0.90566 2.02841 0.641509 2.36553 0.490566C2.7401 0.301887 3.11468 0.188679 3.48925 0.113208C3.86382 0.0377358 4.27585 0 4.65043 0H57.8774ZM57.7975 1.75342H4.65043C4.38118 1.75342 4.08356 1.78148 3.82936 1.8327C3.56641 1.88569 3.34597 1.95638 3.14134 2.05945L3.10607 2.07722L3.07004 2.09335C2.9909 2.12878 2.82603 2.23994 2.65643 2.4108C2.48673 2.58176 2.37674 2.74757 2.34195 2.82643L2.31049 2.89773L2.27288 2.96594C2.20854 3.08262 2.14369 3.25903 2.08947 3.5595L2.08673 3.57466L2.08373 3.58976C2.06846 3.6667 2.05568 3.77547 2.04293 3.95534C2.04032 3.99213 2.03737 4.03856 2.03403 4.09104C2.02653 4.20914 2.01708 4.35783 2.00522 4.49593V35.5472C2.00522 35.8178 2.03302 36.117 2.08373 36.3725C2.13351 36.6232 2.19902 36.8353 2.2927 37.0319C2.43341 37.2822 2.55943 37.4537 2.65643 37.5515C2.82602 37.7223 2.9909 37.8335 3.07004 37.8689L3.14057 37.9005L3.20806 37.9383C3.32462 38.0035 3.50056 38.0691 3.79948 38.1238L3.81445 38.1266L3.82936 38.1296C3.9063 38.1451 4.01474 38.158 4.19339 38.1708C4.23002 38.1735 4.27619 38.1764 4.32832 38.1798C4.44566 38.1874 4.59321 38.1969 4.73024 38.2088H57.8774C58.1466 38.2088 58.4442 38.1808 58.6984 38.1296C58.9479 38.0793 59.1592 38.0131 59.3549 37.9184C59.6037 37.7764 59.7743 37.6493 59.8713 37.5515C60.041 37.3805 60.151 37.2147 60.1858 37.1358L60.2173 37.0645L60.2549 36.9963C60.3192 36.8796 60.3841 36.7032 60.4383 36.4028L60.441 36.3876L60.444 36.3725C60.4593 36.2956 60.4721 36.1868 60.4848 36.0069C60.4875 35.9701 60.4904 35.9237 60.4937 35.8712C60.5012 35.7531 60.5107 35.6045 60.5226 35.4664V4.41509C60.5226 4.14444 60.4948 3.84523 60.444 3.58976C60.3943 3.33904 60.3287 3.12692 60.2351 2.93032C60.0944 2.6801 59.9683 2.50852 59.8713 2.4108C59.7017 2.23994 59.5369 2.12878 59.4577 2.09335L59.3872 2.06177L59.3197 2.024C59.2032 1.95876 59.0272 1.8932 58.7283 1.83845L58.7133 1.83571L58.6984 1.8327C58.6215 1.8172 58.513 1.80429 58.3344 1.79144C58.2978 1.7888 58.2516 1.78582 58.1994 1.78246C58.0821 1.77489 57.9345 1.76537 57.7975 1.75342Z" fill="#2D2926"/>
<path d="M17.1985 13.4339C17.7229 12.7547 18.0975 11.849 17.9851 10.9434C17.1985 10.9811 16.2621 11.4717 15.7002 12.1132C15.2133 12.6792 14.7638 13.6226 14.8761 14.4905C15.7751 14.6037 16.6366 14.1132 17.1985 13.4339ZM17.9851 14.7169C16.7116 14.6415 15.6253 15.4339 15.026 15.4339C14.4267 15.4339 13.4902 14.7547 12.4789 14.7547C11.1679 14.7924 9.96923 15.5094 9.295 16.7169C7.94653 19.0943 8.92043 22.6037 10.2689 24.5283C10.9057 25.4717 11.6923 26.5283 12.7036 26.4905C13.6775 26.4528 14.0521 25.849 15.2133 25.849C16.3744 25.849 16.7116 26.4905 17.7604 26.4528C18.8092 26.4151 19.4834 25.5094 20.1202 24.5283C20.8693 23.4339 21.169 22.3773 21.169 22.3396C21.1315 22.3018 19.1088 21.5471 19.1088 19.2075C19.0714 17.2452 20.682 16.3018 20.757 16.2641C19.8954 14.9056 18.4721 14.7547 17.9851 14.7169Z" fill="#2D2926"/>
<path d="M28.9976 12.0377C31.7694 12.0377 33.6797 13.9622 33.6797 16.717C33.6797 19.5094 31.7319 21.4339 28.9226 21.4339H25.8886V26.3019H23.6786V12.0377H28.9976ZM25.8886 19.5849H28.3982C30.3086 19.5849 31.3948 18.5283 31.3948 16.7547C31.3948 14.9434 30.3086 13.9245 28.3982 13.9245H25.8511V19.5849H25.8886ZM34.2416 23.3962C34.2416 21.5849 35.6275 20.4528 38.0997 20.3019L40.9465 20.1509V19.3585C40.9465 18.1887 40.1599 17.5094 38.8863 17.5094C37.6502 17.5094 36.9011 18.1132 36.7138 19.0189H34.6911C34.8035 17.1321 36.4141 15.7358 38.9612 15.7358C41.4709 15.7358 43.0815 17.0566 43.0815 19.1698V26.3396H41.0588V24.6415H41.0214C40.4221 25.8113 39.111 26.5283 37.7626 26.5283C35.665 26.5283 34.2416 25.2453 34.2416 23.3962ZM40.9465 22.4528V21.6226L38.3994 21.7736C37.1258 21.849 36.4141 22.4151 36.4141 23.3207C36.4141 24.2264 37.1633 24.8302 38.287 24.8302C39.7853 24.8302 40.9465 23.8113 40.9465 22.4528ZM44.9544 30.1887V28.4528C45.1042 28.4906 45.4788 28.4906 45.6286 28.4906C46.6025 28.4906 47.1269 28.0755 47.464 27.0189C47.464 26.9811 47.6513 26.3773 47.6513 26.3773L43.9056 15.9622H46.1905L48.8125 24.4528H48.85L51.472 15.9622H53.7194L49.8613 26.9434C48.9623 29.4717 47.951 30.2641 45.8159 30.2641C45.6661 30.2264 45.1417 30.2264 44.9544 30.1887Z" fill="#2D2926"/>
</g>
<defs>
<clipPath id="clip0">
<rect x="0.263733" width="62" height="40" fill="white"/>
</clipPath>
</defs>
</svg>
