<svg width="53" height="40" viewBox="0 0 53 40" fill="none" xmlns="http://www.w3.org/2000/svg">
<g clip-path="url(#clip0)">
<path d="M44.0008 33.6875C44.0008 34.2946 43.5836 34.7321 42.9851 34.7321C42.3685 34.7321 41.9695 34.2679 41.9695 33.6875C41.9695 33.1071 42.3685 32.6429 42.9851 32.6429C43.5836 32.6429 44.0008 33.1071 44.0008 33.6875ZM15.8172 32.6429C15.1733 32.6429 14.8015 33.1071 14.8015 33.6875C14.8015 34.2679 15.1733 34.7321 15.8172 34.7321C16.4066 34.7321 16.8056 34.2946 16.8056 33.6875C16.7965 33.1071 16.4066 32.6429 15.8172 32.6429ZM26.4722 32.6161C25.9825 32.6161 25.6832 32.9286 25.6107 33.3929H27.3427C27.2611 32.8839 26.9437 32.6161 26.4722 32.6161ZM36.2476 32.6429C35.6309 32.6429 35.2591 33.1071 35.2591 33.6875C35.2591 34.2679 35.6309 34.7321 36.2476 34.7321C36.8642 34.7321 37.2632 34.2946 37.2632 33.6875C37.2632 33.1071 36.8642 32.6429 36.2476 32.6429ZM45.8506 34.9732C45.8506 35 45.8779 35.0179 45.8779 35.0714C45.8779 35.0982 45.8506 35.1161 45.8506 35.1696C45.8234 35.1964 45.8234 35.2143 45.8053 35.2411C45.7781 35.2679 45.76 35.2857 45.7056 35.2857C45.6784 35.3125 45.6602 35.3125 45.6058 35.3125C45.5786 35.3125 45.5605 35.3125 45.5061 35.2857C45.4789 35.2857 45.4607 35.2589 45.4335 35.2411C45.4063 35.2143 45.3882 35.1964 45.3882 35.1696C45.361 35.125 45.361 35.0982 45.361 35.0714C45.361 35.0268 45.361 35 45.3882 34.9732C45.3882 34.9286 45.4154 34.9018 45.4335 34.875C45.4607 34.8482 45.4789 34.8482 45.5061 34.8304C45.5514 34.8036 45.5786 34.8036 45.6058 34.8036C45.6512 34.8036 45.6784 34.8036 45.7056 34.8304C45.7509 34.8571 45.7781 34.8571 45.8053 34.875C45.8325 34.8929 45.8234 34.9286 45.8506 34.9732ZM45.6512 35.0982C45.6965 35.0982 45.6965 35.0714 45.7237 35.0714C45.7509 35.0446 45.7509 35.0268 45.7509 35C45.7509 34.9732 45.7509 34.9554 45.7237 34.9286C45.6965 34.9286 45.6784 34.9018 45.6239 34.9018H45.4789V35.2143H45.5514V35.0893H45.5786L45.6784 35.2143H45.7509L45.6512 35.0982ZM52.4431 4.28571V35.7143C52.4431 38.0804 50.4935 40 48.0905 40H4.56368C2.16064 40 0.210999 38.0804 0.210999 35.7143V4.28571C0.210999 1.91964 2.16064 0 4.56368 0H48.0905C50.4935 0 52.4431 1.91964 52.4431 4.28571ZM6.01457 16.75C6.01457 23.5804 11.6458 29.1161 18.5739 29.1161C21.0404 29.1161 23.4616 28.3839 25.5109 27.0536C18.9003 21.7589 18.9457 11.7679 25.5109 6.47321C23.4616 5.13393 21.0404 4.41071 18.5739 4.41071C11.6458 4.40179 6.01457 9.94643 6.01457 16.75ZM26.3271 26.4643C32.7201 21.5536 32.6929 11.9821 26.3271 7.04464C19.9613 11.9821 19.9341 21.5625 26.3271 26.4643ZM13.4232 33.2768C13.4232 32.5 12.9063 31.9911 12.0902 31.9643C11.6731 31.9643 11.2287 32.0893 10.9295 32.5446C10.7118 32.1786 10.34 31.9643 9.82316 31.9643C9.47858 31.9643 9.13399 32.0893 8.86195 32.4464V32.0536H8.11836V35.3304H8.86195C8.86195 33.6429 8.63525 32.6339 9.67807 32.6339C10.603 32.6339 10.4217 33.5446 10.4217 35.3304H11.138C11.138 33.6964 10.9113 32.6339 11.9542 32.6339C12.8791 32.6339 12.6977 33.5268 12.6977 35.3304H13.4413V33.2768H13.4232ZM17.4948 32.0536H16.7784V32.4464C16.5335 32.1518 16.189 31.9643 15.7174 31.9643C14.7834 31.9643 14.067 32.6964 14.067 33.6875C14.067 34.6875 14.7834 35.4107 15.7174 35.4107C16.189 35.4107 16.5335 35.2411 16.7784 34.9286V35.3393H17.4948V32.0536ZM21.1673 34.3393C21.1673 33 19.0907 33.6071 19.0907 32.9821C19.0907 32.4732 20.1698 32.5536 20.7683 32.8839L21.0676 32.3036C20.2152 31.7589 18.329 31.7679 18.329 33.0357C18.329 34.3125 20.4056 33.7768 20.4056 34.375C20.4056 34.9375 19.1814 34.8929 18.5285 34.4464L18.2111 35.0089C19.2268 35.6875 21.1673 35.5446 21.1673 34.3393ZM24.3774 35.1696L24.1779 34.5625C23.8333 34.75 23.0716 34.9554 23.0716 34.1964V32.7143H24.2596V32.0536H23.0716V31.0536H22.328V32.0536H21.6389V32.7054H22.328V34.1964C22.328 35.7679 23.8968 35.4821 24.3774 35.1696ZM25.5835 33.9732H28.0772C28.0772 32.5268 27.4062 31.9554 26.4994 31.9554C25.5381 31.9554 24.849 32.6607 24.849 33.6786C24.849 35.5089 26.8984 35.8125 27.914 34.9464L27.5694 34.4107C26.8621 34.9821 25.7921 34.9286 25.5835 33.9732ZM30.9427 32.0536C30.5256 31.875 29.8908 31.8929 29.5644 32.4464V32.0536H28.8208V35.3304H29.5644V33.4821C29.5644 32.4464 30.4258 32.5804 30.7251 32.7321L30.9427 32.0536ZM31.9039 33.6875C31.9039 32.6696 32.9558 32.3393 33.781 32.9375L34.1256 32.3571C33.0737 31.5446 31.1604 31.9911 31.1604 33.6964C31.1604 35.4643 33.1916 35.8214 34.1256 35.0357L33.781 34.4554C32.9468 35.0357 31.9039 34.6875 31.9039 33.6875ZM37.9524 32.0536H37.2088V32.4464C36.4561 31.4643 34.4974 32.0179 34.4974 33.6875C34.4974 35.4018 36.5287 35.8929 37.2088 34.9286V35.3393H37.9524V32.0536ZM41.0083 32.0536C40.7907 31.9464 40.0108 31.7946 39.6299 32.4464V32.0536H38.9136V35.3304H39.6299V33.4821C39.6299 32.5 40.4461 32.5625 40.7907 32.7321L41.0083 32.0536ZM44.6627 30.7232H43.9464V32.4464C43.2028 31.4732 41.235 31.9911 41.235 33.6875C41.235 35.4196 43.2753 35.8839 43.9464 34.9286V35.3393H44.6627V30.7232ZM45.3519 24.0179V24.4286H45.4244V24.0179H45.5967V23.9464H45.1796V24.0179H45.3519ZM45.9504 35.0714C45.9504 35.0268 45.9504 34.9732 45.9232 34.9286C45.896 34.9018 45.8779 34.8571 45.8506 34.8304C45.8234 34.8036 45.7781 34.7857 45.7509 34.7589C45.7056 34.7589 45.6512 34.7321 45.6058 34.7321C45.5786 34.7321 45.5333 34.7589 45.4789 34.7589C45.4335 34.7857 45.4063 34.8036 45.3791 34.8304C45.3338 34.8571 45.3066 34.9018 45.3066 34.9286C45.2794 34.9732 45.2794 35.0268 45.2794 35.0714C45.2794 35.0982 45.2794 35.1429 45.3066 35.1964C45.3066 35.2232 45.3338 35.2679 45.3791 35.2946C45.4063 35.3214 45.4244 35.3393 45.4789 35.3661C45.5242 35.3929 45.5786 35.3929 45.6058 35.3929C45.6512 35.3929 45.7056 35.3929 45.7509 35.3661C45.7781 35.3393 45.8234 35.3214 45.8506 35.2946C45.8779 35.2679 45.896 35.2232 45.9232 35.1964C45.9504 35.1429 45.9504 35.0982 45.9504 35.0714ZM46.2406 23.9375H46.1136L45.9685 24.25L45.8234 23.9375H45.6965V24.4196H45.769V24.0536L45.9141 24.3661H46.0139L46.1408 24.0536V24.4196H46.2406V23.9375ZM46.6396 16.75C46.6396 9.94643 41.0083 4.40179 34.0803 4.40179C31.6138 4.40179 29.1926 5.13393 27.1432 6.46429C33.6813 11.7589 33.781 21.7768 27.1432 27.0446C29.1926 28.3839 31.6319 29.1071 34.0803 29.1071C41.0083 29.1161 46.6396 23.5804 46.6396 16.75Z" fill="#2D2926"/>
</g>
<defs>
<clipPath id="clip0">
<rect x="0.210999" width="52" height="40" fill="white"/>
</clipPath>
</defs>
</svg>
