<?xml version="1.0" encoding="utf-8"?>
<!-- Generator: Adobe Illustrator 22.1.0, SVG Export Plug-In . SVG Version: 6.00 Build 0)  -->
<svg version="1.1" id="Layer_1" xmlns="http://www.w3.org/2000/svg" xmlns:xlink="http://www.w3.org/1999/xlink" x="0px" y="0px"
	 viewBox="0 0 566.9 566.9" style="enable-background:new 0 0 566.9 566.9;" xml:space="preserve">
<g>
	<g>
		<path d="M283.4,448.7c-13.2,0.3-26.4-0.3-39.5-1.5c-20-1.9-39.7-5.4-58.8-11.9c-14-4.8-27.3-11-39.2-20
			c-8.7-6.6-16.3-14.3-21.5-24c-3.2-5.9-5.2-12.2-5.1-19c0.1-7.1,2.7-13.4,6.8-19.1c5.1-7.1,11.7-12.6,19-17.2
			c1.7-1.1,3.5-2,5.1-3.1c0.4-0.3,0.9-0.8,0.9-1.3c1.1-7.1,2.2-14.1,3.2-21.2c1.6-10.4,3.1-20.8,4.7-31.2c1.5-9.8,3-19.7,4.4-29.5
			c1.7-11.5,3.5-23.1,5.2-34.6c1.7-11.1,3.3-22.2,4.9-33.3c0.9-6,1.7-12.1,2.7-18.1c0.9-5.2,3.5-9.6,7.1-13.5
			c4.4-4.8,9.8-8.4,15.6-11.4c10.3-5.4,21.4-8.9,32.6-11.8c15.3-3.9,30.8-6.4,46.4-8.4c5.3-0.7,10.4-0.1,15.6,0.6
			c13.1,1.6,26,3.8,38.8,6.9c12.7,3.1,25.2,6.9,36.8,13.2c6,3.2,11.4,7.2,15.8,12.5c3.6,4.4,5.5,9.4,6.3,15
			c1.8,12.4,3.8,24.8,5.6,37.2c2,13.1,3.9,26.2,5.9,39.2c1.6,11,3.3,22,4.9,33.1c1.5,9.9,2.9,19.8,4.4,29.6c1.3,8.7,2.6,17.3,3.9,26
			c0.1,0.5,0.6,1,1.1,1.3c5.6,3.2,11,6.8,15.7,11.1c6,5.4,10.9,11.6,13.4,19.4c2.8,8.6,1.5,16.8-2.2,24.8
			c-4.2,9.2-10.6,16.6-18.1,23.1c-11.6,10-25,16.8-39.2,22.1c-13.1,4.9-26.7,8.2-40.5,10.6c-15.8,2.7-31.8,4.2-47.8,4.6
			C293.3,448.8,288.4,448.7,283.4,448.7z M282.1,410.1c12.2-0.4,23.1-0.7,34-1.2c13.9-0.7,27.8-2.2,41.5-4.9
			c10.2-2,20.2-4.6,29.7-8.9c6-2.7,11.7-5.9,16.2-10.8c2.9-3.2,5.3-6.7,5.2-11.2c0-2.7-0.6-5.4-1-8.1c-2-13.2-3.9-26.5-5.9-39.7
			c-2-13.7-4-27.4-6.1-41.1c-2-13.7-4.1-27.4-6.2-41.1c-1.8-12.1-3.6-24.1-5.4-36.2c-1.9-12.5-3.9-24.9-5.6-37.5
			c-0.7-5.5-3.1-9.7-7.2-13.2c-3.8-3.2-8.1-5.7-12.6-7.8c-10.6-5-21.8-8.2-33.2-10.8c-11.7-2.7-23.5-4.5-35.3-5.9
			c-2.5-0.3-5-0.8-7.4-0.5c-14.1,1.3-28,3.6-41.7,6.8c-11.7,2.7-23.2,6-34.1,11.2c-5,2.4-9.8,5.2-13.7,9.3c-2.2,2.3-3.9,4.9-4.4,8.1
			c-0.6,4.1-1.1,8.2-1.8,12.3c-2,13.8-4.1,27.5-6.1,41.3c-2.6,17.3-5.2,34.7-7.8,52c-2.6,17.3-5.2,34.5-7.8,51.8
			c-2.3,15.3-4.6,30.7-7,46c-0.7,4.5,0.3,8.3,2.9,11.8c2.7,3.7,6.2,6.6,10,9c7.9,5,16.6,8,25.5,10.4c15.8,4.2,32,6.4,48.3,7.4
			C257.9,409.3,270.6,409.7,282.1,410.1z M419,349.3c-0.1,0.1-0.2,0.2-0.4,0.3c0.7,5.1,1.5,10.1,2.2,15.2c0.4,2.8,1,5.6,1,8.4
			c0,5.9-2.1,11.2-5.5,15.9c-4,5.6-9.2,9.8-15.1,13.3c-9.7,5.8-20.3,9.3-31.2,12c-16.5,4.1-33.4,6.1-50.4,7.2c-14.6,1-29.3,1.2-44,1
			c-13.2-0.2-26.4-0.7-39.6-1.9c-11.5-1.1-22.9-2.6-34.2-5.1c-11.1-2.5-22-5.7-32.2-11c-7.2-3.8-13.8-8.4-18.7-15.1
			c-4.2-5.8-6.6-12.2-5.7-19.4c0.6-5,1.5-9.9,2.2-14.8c0.3-2,0.6-3.9,0.9-6c-0.3,0.1-0.4,0.1-0.5,0.1c-4,3-7.8,6.3-10.8,10.3
			c-2.8,3.8-4.8,8-4.8,12.9c0,4.5,1.6,8.5,3.7,12.4c4.1,7.5,9.9,13.5,16.6,18.7c11.9,9.3,25.5,15.3,39.7,19.9
			c20,6.4,40.6,9.5,61.5,11c14,1,28.1,1.2,42.2,0.8c15.2-0.4,30.4-1.7,45.5-4.1c14.9-2.4,29.6-6,43.7-11.6
			c12.2-4.8,23.6-10.9,33.4-19.7c5.7-5.1,10.6-10.9,13.7-18c1.9-4.2,3-8.6,1.9-13.3c-1.2-4.9-3.8-9-7.3-12.6
			C424.4,354.1,421.6,351.7,419,349.3z"/>
		<path d="M282.2,192.7c-27.3-0.1-53.9-4.1-79.7-12.8c-1.4-0.5-2.8-1-4.2-1.5c-3.5-1.3-5.3-4.9-4.1-8.3c1.2-3.5,4.9-5.3,8.4-4
			c9.9,3.5,20,6.4,30.3,8.5c11.2,2.3,22.5,3.8,33.9,4.5c10.6,0.7,21.3,0.7,31.9-0.1c22.6-1.5,44.7-5.4,66.1-12.9
			c3.5-1.2,7.2,0.4,8.5,3.8c1.3,3.4-0.4,7.1-4,8.5c-9.8,3.6-19.8,6.2-30,8.3c-14.4,3-28.9,4.9-43.6,5.6
			C291.2,192.5,286.7,192.6,282.2,192.7z"/>
		<path d="M284.3,160.1c-9,0-16.4-3-22.8-8.5c-2.8-2.4-3.1-6.4-0.9-9.1c2.3-2.8,6.3-3.2,9.2-0.8c4.6,3.8,9.7,5.9,15.7,5.3
			c5.1-0.5,9.7-2.4,13.8-5.4c3.6-2.6,8.3-1.6,10.1,2.4c1.2,2.7,0.5,5.9-1.9,7.8C300.5,157,292.6,159.9,284.3,160.1z"/>
	</g>
</g>
</svg>
