<svg width="210" height="30" viewBox="0 0 210 30" fill="none" xmlns="http://www.w3.org/2000/svg">
<path d="M15 0L18.3677 10.3647H29.2658L20.4491 16.7705L23.8168 27.1353L15 20.7295L6.18322 27.1353L9.55093 16.7705L0.734152 10.3647H11.6323L15 0Z" fill="#FFCC00"/>
<path d="M60 0L63.3677 10.3647H74.2658L65.4491 16.7705L68.8168 27.1353L60 20.7295L51.1832 27.1353L54.5509 16.7705L45.7342 10.3647H56.6323L60 0Z" fill="#FFCC00"/>
<path d="M105 0L108.368 10.3647H119.266L110.449 16.7705L113.817 27.1353L105 20.7295L96.1832 27.1353L99.5509 16.7705L90.7342 10.3647H101.632L105 0Z" fill="#FFCC00"/>
<path d="M150 0L153.368 10.3647H164.266L155.449 16.7705L158.817 27.1353L150 20.7295L141.183 27.1353L144.551 16.7705L135.734 10.3647H146.632L150 0Z" fill="#FFCC00"/>
<path d="M195 0L198.368 10.3647H209.266L200.449 16.7705L203.817 27.1353L195 20.7295L186.183 27.1353L189.551 16.7705L180.734 10.3647H191.632L195 0Z" fill="#FFCC00"/>
</svg>
