<svg width="24" height="24" viewBox="0 0 24 24" fill="none" xmlns="http://www.w3.org/2000/svg">
<path d="M6.91131 6.70112C8.8184 4.78704 11.638 4.10269 14.2102 4.92951C14.7844 5.11305 15.3988 4.79578 15.5824 4.22156C15.7659 3.64734 15.4486 3.03291 14.8744 2.84937C9.93188 1.26828 4.64326 3.99257 3.0613 8.93509C2.39181 11.0275 2.47659 13.2877 3.30078 15.3241C3.30771 15.3414 3.31229 15.3592 3.31462 15.377L1.55346 16.5156C1.2713 16.698 1.32615 17.126 1.6452 17.2314L6.54106 18.8481C6.78348 18.9282 7.03783 18.7637 7.06433 18.5098L7.59954 13.3818C7.63442 13.0476 7.26669 12.8219 6.98453 13.0043L5.25946 14.1196C5.22471 14.1031 5.19389 14.0772 5.17116 14.0428C5.1598 14.0262 5.15106 14.0078 5.14494 13.9886C4.32861 11.4199 5.00947 8.61083 6.91131 6.70112Z" fill="#706C69"/>
<path d="M18.7959 9.47711L17.0453 10.6087C16.7631 10.7911 16.3954 10.5654 16.4303 10.2313L16.9658 5.10324C16.9923 4.84933 17.2467 4.6849 17.4891 4.76497L22.3849 6.38203C22.7039 6.48741 22.7588 6.91537 22.4766 7.09777L20.7142 8.23703C20.7154 8.25923 20.7201 8.28153 20.7285 8.30318C21.53 10.3029 21.62 12.5177 20.9837 14.5759C19.4507 19.5333 14.1892 22.3092 9.2318 20.7762L9.2316 20.7761C9.21332 20.7709 9.19503 20.7657 9.17674 20.7596C8.60427 20.5664 8.29749 19.9467 8.49065 19.3751C8.6838 18.8027 9.30347 18.4959 9.87508 18.689C11.2945 19.1287 12.8152 19.1182 14.2285 18.6602C18.0165 17.4322 20.0922 13.3663 18.8643 9.57836C18.8512 9.53816 18.8274 9.50336 18.7959 9.47711Z" fill="#706C69"/>
</svg>
